G04 ---------------------------- Layer name :TOP SILK LAYER*
G04 EasyEDA v5.8.22, Sat, 19 Jan 2019 18:17:00 GMT*
G04 b8eca77e87294b629a6419249ffa979f*
G04 Gerber Generator version 0.2*
G04 Scale: 100 percent, Rotated: No, Reflected: No *
G04 Dimensions in millimeters *
G04 leading zeros omitted , absolute positions ,3 integer and 3 decimal *
%FSLAX33Y33*%
%MOMM*%
G90*
G71D02*

%ADD17C,0.152400*%
%ADD18C,0.101600*%
%ADD19C,0.100000*%

%LPD*%
G54D17*
G01X3152Y73149D02*
G01X6652Y73149D01*
G01X3152Y76647D02*
G01X6652Y76647D01*
G01X13251Y73251D02*
G01X16748Y73251D01*
G01X13251Y76748D02*
G01X16748Y76748D01*
G01X23251Y73248D02*
G01X26751Y73248D01*
G01X23251Y76748D02*
G01X26751Y76748D01*
G01X33251Y73251D02*
G01X36748Y73251D01*
G01X33251Y76748D02*
G01X36748Y76748D01*
G01X43251Y73251D02*
G01X46748Y73251D01*
G01X43251Y76748D02*
G01X46748Y76748D01*
G01X53251Y73251D02*
G01X56748Y73251D01*
G01X53251Y76748D02*
G01X56748Y76748D01*
G01X63251Y73251D02*
G01X66748Y73251D01*
G01X63251Y76748D02*
G01X66748Y76748D01*
G01X73251Y73251D02*
G01X76748Y73251D01*
G01X73251Y76748D02*
G01X76748Y76748D01*
G01X3251Y63251D02*
G01X6748Y63251D01*
G01X3251Y66748D02*
G01X6748Y66748D01*
G01X13251Y63251D02*
G01X16748Y63251D01*
G01X13251Y66748D02*
G01X16748Y66748D01*
G01X23251Y63251D02*
G01X26748Y63251D01*
G01X23251Y66748D02*
G01X26748Y66748D01*
G01X33251Y63251D02*
G01X36748Y63251D01*
G01X33251Y66748D02*
G01X36748Y66748D01*
G01X43251Y63251D02*
G01X46748Y63251D01*
G01X43251Y66748D02*
G01X46748Y66748D01*
G01X53251Y63248D02*
G01X56751Y63248D01*
G01X53251Y66748D02*
G01X56751Y66748D01*
G01X63251Y63251D02*
G01X66748Y63251D01*
G01X63251Y66748D02*
G01X66748Y66748D01*
G01X73251Y63251D02*
G01X76748Y63251D01*
G01X73251Y66748D02*
G01X76748Y66748D01*
G01X3251Y53251D02*
G01X6748Y53251D01*
G01X3251Y56748D02*
G01X6748Y56748D01*
G01X13251Y53251D02*
G01X16748Y53251D01*
G01X13251Y56748D02*
G01X16748Y56748D01*
G01X23251Y53251D02*
G01X26748Y53251D01*
G01X23251Y56748D02*
G01X26748Y56748D01*
G01X33251Y53248D02*
G01X36751Y53248D01*
G01X33251Y56748D02*
G01X36751Y56748D01*
G01X43251Y53248D02*
G01X46751Y53248D01*
G01X43251Y56748D02*
G01X46751Y56748D01*
G01X53251Y53248D02*
G01X56751Y53248D01*
G01X53251Y56748D02*
G01X56751Y56748D01*
G01X63251Y53251D02*
G01X66748Y53251D01*
G01X63251Y56748D02*
G01X66748Y56748D01*
G01X73251Y53248D02*
G01X76751Y53248D01*
G01X73251Y56748D02*
G01X76751Y56748D01*
G01X3251Y43248D02*
G01X6751Y43248D01*
G01X3251Y46748D02*
G01X6751Y46748D01*
G01X13251Y43248D02*
G01X16751Y43248D01*
G01X13251Y46748D02*
G01X16751Y46748D01*
G01X23251Y43248D02*
G01X26751Y43248D01*
G01X23251Y46748D02*
G01X26751Y46748D01*
G01X33251Y43248D02*
G01X36751Y43248D01*
G01X33251Y46748D02*
G01X36751Y46748D01*
G01X43251Y43248D02*
G01X46751Y43248D01*
G01X43251Y46748D02*
G01X46751Y46748D01*
G01X53251Y43248D02*
G01X56751Y43248D01*
G01X53251Y46748D02*
G01X56751Y46748D01*
G01X63251Y43248D02*
G01X66751Y43248D01*
G01X63251Y46748D02*
G01X66751Y46748D01*
G01X73251Y43248D02*
G01X76751Y43248D01*
G01X73251Y46748D02*
G01X76751Y46748D01*
G01X3251Y33248D02*
G01X6751Y33248D01*
G01X3251Y36748D02*
G01X6751Y36748D01*
G01X13251Y33248D02*
G01X16751Y33248D01*
G01X13251Y36748D02*
G01X16751Y36748D01*
G01X23251Y33248D02*
G01X26751Y33248D01*
G01X23251Y36748D02*
G01X26751Y36748D01*
G01X33251Y33248D02*
G01X36751Y33248D01*
G01X33251Y36748D02*
G01X36751Y36748D01*
G01X43251Y33248D02*
G01X46751Y33248D01*
G01X43251Y36748D02*
G01X46751Y36748D01*
G01X53251Y33248D02*
G01X56751Y33248D01*
G01X53251Y36748D02*
G01X56751Y36748D01*
G01X63251Y33248D02*
G01X66751Y33248D01*
G01X63251Y36748D02*
G01X66751Y36748D01*
G01X73251Y33251D02*
G01X76748Y33251D01*
G01X73251Y36748D02*
G01X76748Y36748D01*
G01X3251Y23248D02*
G01X6751Y23248D01*
G01X3251Y26748D02*
G01X6751Y26748D01*
G01X13251Y23248D02*
G01X16751Y23248D01*
G01X13251Y26748D02*
G01X16751Y26748D01*
G01X23251Y23251D02*
G01X26748Y23251D01*
G01X23251Y26748D02*
G01X26748Y26748D01*
G01X33251Y23248D02*
G01X36751Y23248D01*
G01X33251Y26748D02*
G01X36751Y26748D01*
G01X43251Y23248D02*
G01X46751Y23248D01*
G01X43251Y26748D02*
G01X46751Y26748D01*
G01X53251Y23248D02*
G01X56751Y23248D01*
G01X53251Y26748D02*
G01X56751Y26748D01*
G01X63251Y23251D02*
G01X66748Y23251D01*
G01X63251Y26748D02*
G01X66748Y26748D01*
G01X73251Y23251D02*
G01X76748Y23251D01*
G01X73251Y26748D02*
G01X76748Y26748D01*
G01X3251Y13248D02*
G01X6751Y13248D01*
G01X3251Y16748D02*
G01X6751Y16748D01*
G01X13251Y13248D02*
G01X16751Y13248D01*
G01X13251Y16748D02*
G01X16751Y16748D01*
G01X23251Y13248D02*
G01X26751Y13248D01*
G01X23251Y16748D02*
G01X26751Y16748D01*
G01X33251Y13248D02*
G01X36751Y13248D01*
G01X33251Y16748D02*
G01X36751Y16748D01*
G01X43251Y13248D02*
G01X46751Y13248D01*
G01X43251Y16748D02*
G01X46751Y16748D01*
G01X53251Y13248D02*
G01X56751Y13248D01*
G01X53251Y16748D02*
G01X56751Y16748D01*
G01X63251Y13248D02*
G01X66751Y13248D01*
G01X63251Y16748D02*
G01X66751Y16748D01*
G01X73251Y13251D02*
G01X76748Y13251D01*
G01X73251Y16748D02*
G01X76748Y16748D01*
G01X3251Y3248D02*
G01X6751Y3248D01*
G01X3251Y6748D02*
G01X6751Y6748D01*
G01X13251Y3248D02*
G01X16751Y3248D01*
G01X13251Y6748D02*
G01X16751Y6748D01*
G01X23251Y3251D02*
G01X26748Y3251D01*
G01X23251Y6748D02*
G01X26748Y6748D01*
G01X33251Y3251D02*
G01X36748Y3251D01*
G01X33251Y6748D02*
G01X36748Y6748D01*
G01X43251Y3248D02*
G01X46751Y3248D01*
G01X43251Y6748D02*
G01X46751Y6748D01*
G01X53251Y3251D02*
G01X56748Y3251D01*
G01X53251Y6748D02*
G01X56748Y6748D01*
G01X63251Y3248D02*
G01X66751Y3248D01*
G01X63251Y6748D02*
G01X66751Y6748D01*
G01X73251Y3251D02*
G01X76748Y3251D01*
G01X73251Y6748D02*
G01X76748Y6748D01*
G54D18*
G01X4617Y71729D02*
G01X3982Y71729D01*
G01X3982Y70866D01*
G01X4516Y70866D01*
G01X4617Y70866D01*
G01X4998Y70866D02*
G01X5608Y70866D01*
G01X5608Y71729D01*
G01X5074Y71729D01*
G01X4998Y71729D01*
G01X14815Y71932D02*
G01X14180Y71932D01*
G01X14180Y71069D01*
G01X14714Y71069D01*
G01X14815Y71069D01*
G01X15196Y71069D02*
G01X15806Y71069D01*
G01X15806Y71932D01*
G01X15273Y71932D01*
G01X15196Y71932D01*
G01X24815Y71930D02*
G01X24180Y71930D01*
G01X24180Y71066D01*
G01X24714Y71066D01*
G01X24815Y71066D01*
G01X25196Y71066D02*
G01X25806Y71066D01*
G01X25806Y71930D01*
G01X25273Y71930D01*
G01X25196Y71930D01*
G01X34815Y71930D02*
G01X34180Y71930D01*
G01X34180Y71066D01*
G01X34714Y71066D01*
G01X34815Y71066D01*
G01X35196Y71066D02*
G01X35806Y71066D01*
G01X35806Y71930D01*
G01X35272Y71930D01*
G01X35196Y71930D01*
G01X44815Y71930D02*
G01X44180Y71930D01*
G01X44180Y71066D01*
G01X44714Y71066D01*
G01X44815Y71066D01*
G01X45196Y71066D02*
G01X45806Y71066D01*
G01X45806Y71930D01*
G01X45272Y71930D01*
G01X45196Y71930D01*
G01X54815Y71930D02*
G01X54180Y71930D01*
G01X54180Y71066D01*
G01X54714Y71066D01*
G01X54815Y71066D01*
G01X55196Y71066D02*
G01X55806Y71066D01*
G01X55806Y71930D01*
G01X55272Y71930D01*
G01X55196Y71930D01*
G01X64815Y71930D02*
G01X64180Y71930D01*
G01X64180Y71066D01*
G01X64714Y71066D01*
G01X64815Y71066D01*
G01X65196Y71066D02*
G01X65806Y71066D01*
G01X65806Y71930D01*
G01X65272Y71930D01*
G01X65196Y71930D01*
G01X75316Y71930D02*
G01X74681Y71930D01*
G01X74681Y71066D01*
G01X75214Y71066D01*
G01X75316Y71066D01*
G01X75697Y71066D02*
G01X76306Y71066D01*
G01X76306Y71930D01*
G01X75773Y71930D01*
G01X75697Y71930D01*
G01X4815Y61932D02*
G01X4180Y61932D01*
G01X4180Y61069D01*
G01X4714Y61069D01*
G01X4815Y61069D01*
G01X5196Y61069D02*
G01X5806Y61069D01*
G01X5806Y61932D01*
G01X5273Y61932D01*
G01X5196Y61932D01*
G01X14815Y61932D02*
G01X14180Y61932D01*
G01X14180Y61069D01*
G01X14714Y61069D01*
G01X14815Y61069D01*
G01X15196Y61069D02*
G01X15806Y61069D01*
G01X15806Y61932D01*
G01X15273Y61932D01*
G01X15196Y61932D01*
G01X24815Y61930D02*
G01X24180Y61930D01*
G01X24180Y61066D01*
G01X24714Y61066D01*
G01X24815Y61066D01*
G01X25196Y61066D02*
G01X25806Y61066D01*
G01X25806Y61930D01*
G01X25273Y61930D01*
G01X25196Y61930D01*
G01X34815Y61930D02*
G01X34180Y61930D01*
G01X34180Y61066D01*
G01X34714Y61066D01*
G01X34815Y61066D01*
G01X35196Y61066D02*
G01X35806Y61066D01*
G01X35806Y61930D01*
G01X35272Y61930D01*
G01X35196Y61930D01*
G01X44815Y61930D02*
G01X44180Y61930D01*
G01X44180Y61066D01*
G01X44714Y61066D01*
G01X44815Y61066D01*
G01X45196Y61066D02*
G01X45806Y61066D01*
G01X45806Y61930D01*
G01X45272Y61930D01*
G01X45196Y61930D01*
G01X55316Y61930D02*
G01X54681Y61930D01*
G01X54681Y61066D01*
G01X55214Y61066D01*
G01X55316Y61066D01*
G01X55697Y61066D02*
G01X56306Y61066D01*
G01X56306Y61930D01*
G01X55773Y61930D01*
G01X55697Y61930D01*
G01X64815Y61930D02*
G01X64180Y61930D01*
G01X64180Y61066D01*
G01X64714Y61066D01*
G01X64815Y61066D01*
G01X65196Y61066D02*
G01X65806Y61066D01*
G01X65806Y61930D01*
G01X65272Y61930D01*
G01X65196Y61930D01*
G01X74815Y61930D02*
G01X74180Y61930D01*
G01X74180Y61066D01*
G01X74714Y61066D01*
G01X74815Y61066D01*
G01X75196Y61066D02*
G01X75806Y61066D01*
G01X75806Y61930D01*
G01X75272Y61930D01*
G01X75196Y61930D01*
G01X4815Y51930D02*
G01X4180Y51930D01*
G01X4180Y51066D01*
G01X4714Y51066D01*
G01X4815Y51066D01*
G01X5196Y51066D02*
G01X5806Y51066D01*
G01X5806Y51930D01*
G01X5273Y51930D01*
G01X5196Y51930D01*
G01X14815Y51930D02*
G01X14180Y51930D01*
G01X14180Y51066D01*
G01X14714Y51066D01*
G01X14815Y51066D01*
G01X15196Y51066D02*
G01X15806Y51066D01*
G01X15806Y51930D01*
G01X15273Y51930D01*
G01X15196Y51930D01*
G01X24815Y51930D02*
G01X24180Y51930D01*
G01X24180Y51066D01*
G01X24714Y51066D01*
G01X24815Y51066D01*
G01X25196Y51066D02*
G01X25806Y51066D01*
G01X25806Y51930D01*
G01X25273Y51930D01*
G01X25196Y51930D01*
G01X34815Y51930D02*
G01X34180Y51930D01*
G01X34180Y51066D01*
G01X34714Y51066D01*
G01X34815Y51066D01*
G01X35196Y51066D02*
G01X35806Y51066D01*
G01X35806Y51930D01*
G01X35272Y51930D01*
G01X35196Y51930D01*
G01X44815Y51930D02*
G01X44180Y51930D01*
G01X44180Y51066D01*
G01X44714Y51066D01*
G01X44815Y51066D01*
G01X45196Y51066D02*
G01X45806Y51066D01*
G01X45806Y51930D01*
G01X45272Y51930D01*
G01X45196Y51930D01*
G01X54815Y51932D02*
G01X54180Y51932D01*
G01X54180Y51069D01*
G01X54714Y51069D01*
G01X54815Y51069D01*
G01X55196Y51069D02*
G01X55806Y51069D01*
G01X55806Y51932D01*
G01X55272Y51932D01*
G01X55196Y51932D01*
G01X64815Y51930D02*
G01X64180Y51930D01*
G01X64180Y51066D01*
G01X64714Y51066D01*
G01X64815Y51066D01*
G01X65196Y51066D02*
G01X65806Y51066D01*
G01X65806Y51930D01*
G01X65272Y51930D01*
G01X65196Y51930D01*
G01X74815Y51930D02*
G01X74180Y51930D01*
G01X74180Y51066D01*
G01X74714Y51066D01*
G01X74815Y51066D01*
G01X75196Y51066D02*
G01X75806Y51066D01*
G01X75806Y51930D01*
G01X75272Y51930D01*
G01X75196Y51930D01*
G01X4815Y41930D02*
G01X4180Y41930D01*
G01X4180Y41066D01*
G01X4714Y41066D01*
G01X4815Y41066D01*
G01X5196Y41066D02*
G01X5806Y41066D01*
G01X5806Y41930D01*
G01X5273Y41930D01*
G01X5196Y41930D01*
G01X14815Y41930D02*
G01X14180Y41930D01*
G01X14180Y41066D01*
G01X14714Y41066D01*
G01X14815Y41066D01*
G01X15196Y41066D02*
G01X15806Y41066D01*
G01X15806Y41930D01*
G01X15273Y41930D01*
G01X15196Y41930D01*
G01X24815Y41930D02*
G01X24180Y41930D01*
G01X24180Y41066D01*
G01X24714Y41066D01*
G01X24815Y41066D01*
G01X25196Y41066D02*
G01X25806Y41066D01*
G01X25806Y41930D01*
G01X25273Y41930D01*
G01X25196Y41930D01*
G01X34815Y41930D02*
G01X34180Y41930D01*
G01X34180Y41066D01*
G01X34714Y41066D01*
G01X34815Y41066D01*
G01X35196Y41066D02*
G01X35806Y41066D01*
G01X35806Y41930D01*
G01X35272Y41930D01*
G01X35196Y41930D01*
G01X44815Y41930D02*
G01X44180Y41930D01*
G01X44180Y41066D01*
G01X44714Y41066D01*
G01X44815Y41066D01*
G01X45196Y41066D02*
G01X45806Y41066D01*
G01X45806Y41930D01*
G01X45272Y41930D01*
G01X45196Y41930D01*
G01X54815Y41930D02*
G01X54180Y41930D01*
G01X54180Y41066D01*
G01X54714Y41066D01*
G01X54815Y41066D01*
G01X55196Y41066D02*
G01X55806Y41066D01*
G01X55806Y41930D01*
G01X55272Y41930D01*
G01X55196Y41930D01*
G01X64815Y41930D02*
G01X64180Y41930D01*
G01X64180Y41066D01*
G01X64714Y41066D01*
G01X64815Y41066D01*
G01X65196Y41066D02*
G01X65806Y41066D01*
G01X65806Y41930D01*
G01X65272Y41930D01*
G01X65196Y41930D01*
G01X74815Y41930D02*
G01X74180Y41930D01*
G01X74180Y41066D01*
G01X74714Y41066D01*
G01X74815Y41066D01*
G01X75196Y41066D02*
G01X75806Y41066D01*
G01X75806Y41930D01*
G01X75272Y41930D01*
G01X75196Y41930D01*
G01X4815Y31930D02*
G01X4180Y31930D01*
G01X4180Y31066D01*
G01X4714Y31066D01*
G01X4815Y31066D01*
G01X5196Y31066D02*
G01X5806Y31066D01*
G01X5806Y31930D01*
G01X5273Y31930D01*
G01X5196Y31930D01*
G01X14815Y31930D02*
G01X14180Y31930D01*
G01X14180Y31066D01*
G01X14714Y31066D01*
G01X14815Y31066D01*
G01X15196Y31066D02*
G01X15806Y31066D01*
G01X15806Y31930D01*
G01X15273Y31930D01*
G01X15196Y31930D01*
G01X24815Y31930D02*
G01X24180Y31930D01*
G01X24180Y31066D01*
G01X24714Y31066D01*
G01X24815Y31066D01*
G01X25196Y31066D02*
G01X25806Y31066D01*
G01X25806Y31930D01*
G01X25273Y31930D01*
G01X25196Y31930D01*
G01X34815Y31930D02*
G01X34180Y31930D01*
G01X34180Y31066D01*
G01X34714Y31066D01*
G01X34815Y31066D01*
G01X35196Y31066D02*
G01X35806Y31066D01*
G01X35806Y31930D01*
G01X35272Y31930D01*
G01X35196Y31930D01*
G01X44815Y31930D02*
G01X44180Y31930D01*
G01X44180Y31066D01*
G01X44714Y31066D01*
G01X44815Y31066D01*
G01X45196Y31066D02*
G01X45806Y31066D01*
G01X45806Y31930D01*
G01X45272Y31930D01*
G01X45196Y31930D01*
G01X54815Y31932D02*
G01X54180Y31932D01*
G01X54180Y31069D01*
G01X54714Y31069D01*
G01X54815Y31069D01*
G01X55196Y31069D02*
G01X55806Y31069D01*
G01X55806Y31932D01*
G01X55272Y31932D01*
G01X55196Y31932D01*
G01X64815Y31930D02*
G01X64180Y31930D01*
G01X64180Y31066D01*
G01X64714Y31066D01*
G01X64815Y31066D01*
G01X65196Y31066D02*
G01X65806Y31066D01*
G01X65806Y31930D01*
G01X65272Y31930D01*
G01X65196Y31930D01*
G01X74815Y31930D02*
G01X74180Y31930D01*
G01X74180Y31066D01*
G01X74714Y31066D01*
G01X74815Y31066D01*
G01X75196Y31066D02*
G01X75806Y31066D01*
G01X75806Y31930D01*
G01X75272Y31930D01*
G01X75196Y31930D01*
G01X4815Y21930D02*
G01X4180Y21930D01*
G01X4180Y21066D01*
G01X4714Y21066D01*
G01X4815Y21066D01*
G01X5196Y21066D02*
G01X5806Y21066D01*
G01X5806Y21930D01*
G01X5273Y21930D01*
G01X5196Y21930D01*
G01X14815Y21930D02*
G01X14180Y21930D01*
G01X14180Y21066D01*
G01X14714Y21066D01*
G01X14815Y21066D01*
G01X15196Y21066D02*
G01X15806Y21066D01*
G01X15806Y21930D01*
G01X15273Y21930D01*
G01X15196Y21930D01*
G01X24815Y21930D02*
G01X24180Y21930D01*
G01X24180Y21066D01*
G01X24714Y21066D01*
G01X24815Y21066D01*
G01X25196Y21066D02*
G01X25806Y21066D01*
G01X25806Y21930D01*
G01X25273Y21930D01*
G01X25196Y21930D01*
G01X34815Y21930D02*
G01X34180Y21930D01*
G01X34180Y21066D01*
G01X34714Y21066D01*
G01X34815Y21066D01*
G01X35196Y21066D02*
G01X35806Y21066D01*
G01X35806Y21930D01*
G01X35272Y21930D01*
G01X35196Y21930D01*
G01X44815Y21930D02*
G01X44180Y21930D01*
G01X44180Y21066D01*
G01X44714Y21066D01*
G01X44815Y21066D01*
G01X45196Y21066D02*
G01X45806Y21066D01*
G01X45806Y21930D01*
G01X45272Y21930D01*
G01X45196Y21930D01*
G01X54815Y21930D02*
G01X54180Y21930D01*
G01X54180Y21066D01*
G01X54714Y21066D01*
G01X54815Y21066D01*
G01X55196Y21066D02*
G01X55806Y21066D01*
G01X55806Y21930D01*
G01X55272Y21930D01*
G01X55196Y21930D01*
G01X64815Y21930D02*
G01X64180Y21930D01*
G01X64180Y21066D01*
G01X64714Y21066D01*
G01X64815Y21066D01*
G01X65196Y21066D02*
G01X65806Y21066D01*
G01X65806Y21930D01*
G01X65272Y21930D01*
G01X65196Y21930D01*
G01X74815Y21930D02*
G01X74180Y21930D01*
G01X74180Y21066D01*
G01X74714Y21066D01*
G01X74815Y21066D01*
G01X75196Y21066D02*
G01X75806Y21066D01*
G01X75806Y21930D01*
G01X75272Y21930D01*
G01X75196Y21930D01*
G01X4815Y11930D02*
G01X4180Y11930D01*
G01X4180Y11066D01*
G01X4714Y11066D01*
G01X4815Y11066D01*
G01X5196Y11066D02*
G01X5806Y11066D01*
G01X5806Y11930D01*
G01X5273Y11930D01*
G01X5196Y11930D01*
G01X14815Y11930D02*
G01X14180Y11930D01*
G01X14180Y11066D01*
G01X14714Y11066D01*
G01X14815Y11066D01*
G01X15196Y11066D02*
G01X15806Y11066D01*
G01X15806Y11930D01*
G01X15273Y11930D01*
G01X15196Y11930D01*
G01X24815Y11930D02*
G01X24180Y11930D01*
G01X24180Y11066D01*
G01X24714Y11066D01*
G01X24815Y11066D01*
G01X25196Y11066D02*
G01X25806Y11066D01*
G01X25806Y11930D01*
G01X25273Y11930D01*
G01X25196Y11930D01*
G01X34815Y11930D02*
G01X34180Y11930D01*
G01X34180Y11066D01*
G01X34714Y11066D01*
G01X34815Y11066D01*
G01X35196Y11066D02*
G01X35806Y11066D01*
G01X35806Y11930D01*
G01X35272Y11930D01*
G01X35196Y11930D01*
G01X44815Y11930D02*
G01X44180Y11930D01*
G01X44180Y11066D01*
G01X44714Y11066D01*
G01X44815Y11066D01*
G01X45196Y11066D02*
G01X45806Y11066D01*
G01X45806Y11930D01*
G01X45272Y11930D01*
G01X45196Y11930D01*
G01X54815Y11930D02*
G01X54180Y11930D01*
G01X54180Y11066D01*
G01X54714Y11066D01*
G01X54815Y11066D01*
G01X55196Y11066D02*
G01X55806Y11066D01*
G01X55806Y11930D01*
G01X55272Y11930D01*
G01X55196Y11930D01*
G01X64815Y11930D02*
G01X64180Y11930D01*
G01X64180Y11066D01*
G01X64714Y11066D01*
G01X64815Y11066D01*
G01X65196Y11066D02*
G01X65806Y11066D01*
G01X65806Y11930D01*
G01X65272Y11930D01*
G01X65196Y11930D01*
G01X74815Y11930D02*
G01X74180Y11930D01*
G01X74180Y11066D01*
G01X74714Y11066D01*
G01X74815Y11066D01*
G01X75196Y11066D02*
G01X75806Y11066D01*
G01X75806Y11930D01*
G01X75272Y11930D01*
G01X75196Y11930D01*
G01X4815Y1930D02*
G01X4180Y1930D01*
G01X4180Y1066D01*
G01X4714Y1066D01*
G01X4815Y1066D01*
G01X5196Y1066D02*
G01X5806Y1066D01*
G01X5806Y1930D01*
G01X5273Y1930D01*
G01X5196Y1930D01*
G01X14815Y1930D02*
G01X14180Y1930D01*
G01X14180Y1066D01*
G01X14714Y1066D01*
G01X14815Y1066D01*
G01X15196Y1066D02*
G01X15806Y1066D01*
G01X15806Y1930D01*
G01X15273Y1930D01*
G01X15196Y1930D01*
G01X24815Y1930D02*
G01X24180Y1930D01*
G01X24180Y1066D01*
G01X24714Y1066D01*
G01X24815Y1066D01*
G01X25196Y1066D02*
G01X25806Y1066D01*
G01X25806Y1930D01*
G01X25273Y1930D01*
G01X25196Y1930D01*
G01X34815Y1930D02*
G01X34180Y1930D01*
G01X34180Y1066D01*
G01X34714Y1066D01*
G01X34815Y1066D01*
G01X35196Y1066D02*
G01X35806Y1066D01*
G01X35806Y1930D01*
G01X35272Y1930D01*
G01X35196Y1930D01*
G01X44815Y1930D02*
G01X44180Y1930D01*
G01X44180Y1066D01*
G01X44714Y1066D01*
G01X44815Y1066D01*
G01X45196Y1066D02*
G01X45806Y1066D01*
G01X45806Y1930D01*
G01X45272Y1930D01*
G01X45196Y1930D01*
G01X54815Y1930D02*
G01X54180Y1930D01*
G01X54180Y1066D01*
G01X54714Y1066D01*
G01X54815Y1066D01*
G01X55196Y1066D02*
G01X55806Y1066D01*
G01X55806Y1930D01*
G01X55272Y1930D01*
G01X55196Y1930D01*
G01X64815Y1930D02*
G01X64180Y1930D01*
G01X64180Y1066D01*
G01X64714Y1066D01*
G01X64815Y1066D01*
G01X65196Y1066D02*
G01X65806Y1066D01*
G01X65806Y1930D01*
G01X65272Y1930D01*
G01X65196Y1930D01*
G01X74815Y1930D02*
G01X74180Y1930D01*
G01X74180Y1066D01*
G01X74714Y1066D01*
G01X74815Y1066D01*
G01X75196Y1066D02*
G01X75806Y1066D01*
G01X75806Y1930D01*
G01X75272Y1930D01*
G01X75196Y1930D01*
G54D19*
G75*
G01X2404Y75773D02*
G03X2404Y75773I-127J0D01*
G01*
G75*
G01X12502Y75875D02*
G03X12502Y75875I-127J0D01*
G01*
G75*
G01X22504Y75873D02*
G03X22504Y75873I-127J0D01*
G01*
G75*
G01X32502Y75875D02*
G03X32502Y75875I-127J0D01*
G01*
G75*
G01X42502Y75875D02*
G03X42502Y75875I-127J0D01*
G01*
G75*
G01X52502Y75875D02*
G03X52502Y75875I-127J0D01*
G01*
G75*
G01X62502Y75875D02*
G03X62502Y75875I-127J0D01*
G01*
G75*
G01X72502Y75875D02*
G03X72502Y75875I-127J0D01*
G01*
G75*
G01X2502Y65875D02*
G03X2502Y65875I-127J0D01*
G01*
G75*
G01X12502Y65875D02*
G03X12502Y65875I-127J0D01*
G01*
G75*
G01X22502Y65875D02*
G03X22502Y65875I-127J0D01*
G01*
G75*
G01X32502Y65875D02*
G03X32502Y65875I-127J0D01*
G01*
G75*
G01X42502Y65875D02*
G03X42502Y65875I-127J0D01*
G01*
G75*
G01X52504Y65873D02*
G03X52504Y65873I-127J0D01*
G01*
G75*
G01X62502Y65875D02*
G03X62502Y65875I-127J0D01*
G01*
G75*
G01X72502Y65875D02*
G03X72502Y65875I-127J0D01*
G01*
G75*
G01X2502Y55875D02*
G03X2502Y55875I-127J0D01*
G01*
G75*
G01X12502Y55875D02*
G03X12502Y55875I-127J0D01*
G01*
G75*
G01X22502Y55875D02*
G03X22502Y55875I-127J0D01*
G01*
G75*
G01X32504Y55873D02*
G03X32504Y55873I-127J0D01*
G01*
G75*
G01X42504Y55873D02*
G03X42504Y55873I-127J0D01*
G01*
G75*
G01X52504Y55873D02*
G03X52504Y55873I-127J0D01*
G01*
G75*
G01X62502Y55875D02*
G03X62502Y55875I-127J0D01*
G01*
G75*
G01X72504Y55873D02*
G03X72504Y55873I-127J0D01*
G01*
G75*
G01X2504Y45873D02*
G03X2504Y45873I-127J0D01*
G01*
G75*
G01X12504Y45873D02*
G03X12504Y45873I-127J0D01*
G01*
G75*
G01X22504Y45873D02*
G03X22504Y45873I-127J0D01*
G01*
G75*
G01X32504Y45873D02*
G03X32504Y45873I-127J0D01*
G01*
G75*
G01X42504Y45873D02*
G03X42504Y45873I-127J0D01*
G01*
G75*
G01X52504Y45873D02*
G03X52504Y45873I-127J0D01*
G01*
G75*
G01X62504Y45873D02*
G03X62504Y45873I-127J0D01*
G01*
G75*
G01X72504Y45873D02*
G03X72504Y45873I-127J0D01*
G01*
G75*
G01X2504Y35873D02*
G03X2504Y35873I-127J0D01*
G01*
G75*
G01X12504Y35873D02*
G03X12504Y35873I-127J0D01*
G01*
G75*
G01X22504Y35873D02*
G03X22504Y35873I-127J0D01*
G01*
G75*
G01X32504Y35873D02*
G03X32504Y35873I-127J0D01*
G01*
G75*
G01X42504Y35873D02*
G03X42504Y35873I-127J0D01*
G01*
G75*
G01X52504Y35873D02*
G03X52504Y35873I-127J0D01*
G01*
G75*
G01X62504Y35873D02*
G03X62504Y35873I-127J0D01*
G01*
G75*
G01X72502Y35875D02*
G03X72502Y35875I-127J0D01*
G01*
G75*
G01X2504Y25873D02*
G03X2504Y25873I-127J0D01*
G01*
G75*
G01X12504Y25873D02*
G03X12504Y25873I-127J0D01*
G01*
G75*
G01X22502Y25875D02*
G03X22502Y25875I-127J0D01*
G01*
G75*
G01X32504Y25873D02*
G03X32504Y25873I-127J0D01*
G01*
G75*
G01X42504Y25873D02*
G03X42504Y25873I-127J0D01*
G01*
G75*
G01X52504Y25873D02*
G03X52504Y25873I-127J0D01*
G01*
G75*
G01X62502Y25875D02*
G03X62502Y25875I-127J0D01*
G01*
G75*
G01X72502Y25875D02*
G03X72502Y25875I-127J0D01*
G01*
G75*
G01X2504Y15873D02*
G03X2504Y15873I-127J0D01*
G01*
G75*
G01X12504Y15873D02*
G03X12504Y15873I-127J0D01*
G01*
G75*
G01X22504Y15873D02*
G03X22504Y15873I-127J0D01*
G01*
G75*
G01X32504Y15873D02*
G03X32504Y15873I-127J0D01*
G01*
G75*
G01X42504Y15873D02*
G03X42504Y15873I-127J0D01*
G01*
G75*
G01X52504Y15873D02*
G03X52504Y15873I-127J0D01*
G01*
G75*
G01X62504Y15873D02*
G03X62504Y15873I-127J0D01*
G01*
G75*
G01X72502Y15875D02*
G03X72502Y15875I-127J0D01*
G01*
G75*
G01X2504Y5873D02*
G03X2504Y5873I-127J0D01*
G01*
G75*
G01X12504Y5873D02*
G03X12504Y5873I-127J0D01*
G01*
G75*
G01X22502Y5875D02*
G03X22502Y5875I-127J0D01*
G01*
G75*
G01X32502Y5875D02*
G03X32502Y5875I-127J0D01*
G01*
G75*
G01X42504Y5873D02*
G03X42504Y5873I-127J0D01*
G01*
G75*
G01X52502Y5875D02*
G03X52502Y5875I-127J0D01*
G01*
G75*
G01X62504Y5873D02*
G03X62504Y5873I-127J0D01*
G01*
G75*
G01X72502Y5875D02*
G03X72502Y5875I-127J0D01*
G01*
M00*
M02*
