G04 ---------------------------- Layer name :TOP LAYER*
G04 EasyEDA v5.8.22, Sat, 19 Jan 2019 18:17:00 GMT*
G04 b8eca77e87294b629a6419249ffa979f*
G04 Gerber Generator version 0.2*
G04 Scale: 100 percent, Rotated: No, Reflected: No *
G04 Dimensions in millimeters *
G04 leading zeros omitted , absolute positions ,3 integer and 3 decimal *
%FSLAX33Y33*%
%MOMM*%
G90*
G71D02*

%ADD10C,0.254000*%
%ADD11C,0.159995*%
%ADD12C,0.619760*%
%ADD13R,1.199998X0.999998*%
%ADD14R,0.599948X0.649986*%

%LPD*%
G54D11*
G01X3599Y55900D02*
G01X3599Y55158D01*
G01X3743Y55158D02*
G01X3599Y55158D01*
G01X3743Y55158D02*
G01X4366Y55158D01*
G01X4577Y54947D01*
G01X4716Y46642D02*
G01X2758Y48600D01*
G01X2758Y54795D01*
G01X3119Y55158D01*
G01X3743Y55158D01*
G01X54576Y3220D02*
G01X54576Y1498D01*
G01X62544Y4841D02*
G01X55526Y4841D01*
G01X54576Y3891D01*
G01X54576Y3220D01*
G01X54576Y3220D02*
G01X52956Y3220D01*
G01X52529Y3647D01*
G01X52529Y4841D01*
G01X52529Y4841D02*
G01X53296Y5608D01*
G01X53599Y5608D01*
G01X52529Y4841D02*
G01X45656Y4841D01*
G01X44577Y3761D01*
G01X44577Y3350D01*
G01X72677Y4841D02*
G01X72677Y4993D01*
G01X73276Y4993D01*
G01X73599Y5316D01*
G01X74035Y1498D02*
G01X72677Y2857D01*
G01X72677Y4841D01*
G01X72677Y4841D02*
G01X65656Y4841D01*
G01X64576Y3761D01*
G01X64576Y3350D01*
G01X74576Y1498D02*
G01X74035Y1498D01*
G01X34577Y73220D02*
G01X34577Y71498D01*
G01X44577Y73345D02*
G01X40088Y73345D01*
G01X38590Y74841D01*
G01X35526Y74841D01*
G01X34577Y73891D01*
G01X34577Y73220D01*
G01X34577Y73220D02*
G01X32956Y73220D01*
G01X32529Y73647D01*
G01X32529Y74841D01*
G01X32529Y74841D02*
G01X33296Y75608D01*
G01X33599Y75608D01*
G01X32529Y74841D02*
G01X25529Y74841D01*
G01X24577Y73888D01*
G01X24577Y73317D01*
G01X43599Y75900D02*
G01X43599Y76641D01*
G01X53599Y75608D02*
G01X52567Y76641D01*
G01X43599Y76641D01*
G01X53599Y75608D02*
G01X53599Y75158D01*
G01X53599Y75900D02*
G01X53599Y75608D01*
G01X64576Y71498D02*
G01X64576Y74922D01*
G01X63599Y75900D01*
G01X73599Y75529D02*
G01X72486Y76641D01*
G01X63599Y76641D01*
G01X73599Y75529D02*
G01X73599Y75158D01*
G01X73599Y75900D02*
G01X73599Y75529D01*
G01X24577Y73317D02*
G01X24577Y71498D01*
G01X22689Y74841D02*
G01X22689Y73317D01*
G01X24577Y73317D01*
G01X22689Y74841D02*
G01X14681Y74841D01*
G01X14577Y74736D01*
G01X23601Y75608D02*
G01X22837Y74841D01*
G01X22689Y74841D01*
G01X44577Y3350D02*
G01X44577Y1498D01*
G01X44577Y3350D02*
G01X42826Y3350D01*
G01X42545Y3629D01*
G01X42545Y4841D01*
G01X42545Y4841D02*
G01X43601Y5897D01*
G01X34577Y4737D02*
G01X34683Y4841D01*
G01X42545Y4841D01*
G01X53599Y5900D02*
G01X53599Y5608D01*
G01X64576Y3350D02*
G01X64576Y1498D01*
G01X64576Y3350D02*
G01X62826Y3350D01*
G01X62544Y3629D01*
G01X62544Y4841D01*
G01X62544Y4841D02*
G01X63601Y5897D01*
G01X73599Y5900D02*
G01X73599Y5316D01*
G01X63599Y75900D02*
G01X63599Y76641D01*
G01X54576Y75158D02*
G01X54576Y75519D01*
G01X55699Y76641D01*
G01X63599Y76641D01*
G01X54576Y71498D02*
G01X54576Y75158D01*
G01X54576Y75158D02*
G01X53599Y75158D01*
G01X14577Y74736D02*
G01X14155Y75158D01*
G01X13599Y75158D01*
G01X14577Y71498D02*
G01X14577Y74736D01*
G01X23601Y75897D02*
G01X23601Y75608D01*
G01X33599Y75900D02*
G01X33599Y75608D01*
G01X44577Y73345D02*
G01X44577Y74736D01*
G01X44155Y75158D01*
G01X43599Y75158D01*
G01X44577Y71498D02*
G01X44577Y73345D01*
G01X4714Y66641D02*
G01X3599Y65529D01*
G01X12758Y65900D02*
G01X12014Y66641D01*
G01X4714Y66641D01*
G01X4714Y66641D02*
G01X2659Y68696D01*
G01X2659Y74693D01*
G01X3022Y75057D01*
G01X3502Y75057D01*
G01X13599Y65900D02*
G01X13599Y66641D01*
G01X23599Y66641D02*
G01X13599Y66641D01*
G01X23599Y66560D02*
G01X23599Y66641D01*
G01X23599Y65900D02*
G01X23599Y66560D01*
G01X33599Y66641D02*
G01X23599Y66641D01*
G01X33599Y66560D02*
G01X33599Y66641D01*
G01X33599Y65900D02*
G01X33599Y66560D01*
G01X43599Y66641D02*
G01X33599Y66641D01*
G01X43599Y66560D02*
G01X43599Y66641D01*
G01X43599Y65900D02*
G01X43599Y66560D01*
G01X53601Y66639D02*
G01X53601Y66641D01*
G01X43599Y66641D01*
G01X53601Y66560D02*
G01X53601Y66639D01*
G01X53601Y65897D02*
G01X53601Y66560D01*
G01X63599Y66641D02*
G01X53601Y66641D01*
G01X53601Y66639D01*
G01X63599Y66641D02*
G01X63599Y66641D01*
G01X63599Y66560D02*
G01X63599Y66641D01*
G01X63599Y65900D02*
G01X63599Y66560D01*
G01X73599Y65529D02*
G01X72486Y66641D01*
G01X63599Y66641D01*
G01X73599Y65529D02*
G01X73599Y65158D01*
G01X73599Y65900D02*
G01X73599Y65529D01*
G01X3599Y55900D02*
G01X3599Y56642D01*
G01X3599Y56642D02*
G01X2758Y57485D01*
G01X2758Y64795D01*
G01X3119Y65158D01*
G01X3599Y65158D01*
G01X24577Y53345D02*
G01X24577Y54737D01*
G01X24577Y51498D02*
G01X24577Y53345D01*
G01X24577Y53345D02*
G01X20088Y53345D01*
G01X18590Y54841D01*
G01X14683Y54841D01*
G01X14577Y54737D01*
G01X14577Y54737D02*
G01X14155Y55158D01*
G01X13599Y55158D01*
G01X14577Y53357D02*
G01X14577Y54737D01*
G01X34577Y53342D02*
G01X34577Y54737D01*
G01X34577Y51498D02*
G01X34577Y53342D01*
G01X34577Y53342D02*
G01X30088Y53342D01*
G01X28590Y54841D01*
G01X24683Y54841D01*
G01X24577Y54737D01*
G01X24577Y54737D02*
G01X24155Y55158D01*
G01X23599Y55158D01*
G01X44577Y53342D02*
G01X44577Y54737D01*
G01X44577Y51498D02*
G01X44577Y53342D01*
G01X44577Y53342D02*
G01X40088Y53342D01*
G01X38590Y54841D01*
G01X34681Y54841D01*
G01X34577Y54737D01*
G01X34577Y54737D02*
G01X34157Y55156D01*
G01X33601Y55156D01*
G01X54576Y53345D02*
G01X54576Y54739D01*
G01X54576Y51498D02*
G01X54576Y53345D01*
G01X54576Y53345D02*
G01X50086Y53345D01*
G01X48590Y54841D01*
G01X44681Y54841D01*
G01X44577Y54737D01*
G01X44577Y54737D02*
G01X44157Y55156D01*
G01X43601Y55156D01*
G01X64576Y53345D02*
G01X64576Y54737D01*
G01X64155Y55158D01*
G01X63599Y55158D01*
G01X64576Y51498D02*
G01X64576Y53345D01*
G01X64576Y53345D02*
G01X60088Y53345D01*
G01X58590Y54841D01*
G01X54678Y54841D01*
G01X54576Y54739D01*
G01X54576Y54739D02*
G01X54157Y55156D01*
G01X53601Y55156D01*
G01X63599Y55900D02*
G01X63599Y56642D01*
G01X73601Y55526D02*
G01X72486Y56642D01*
G01X63599Y56642D01*
G01X73601Y55526D02*
G01X73601Y55156D01*
G01X73601Y55897D02*
G01X73601Y55526D01*
G01X4716Y46642D02*
G01X3601Y45526D01*
G01X12760Y45897D02*
G01X12016Y46642D01*
G01X4716Y46642D01*
G01X13601Y45897D02*
G01X13601Y46639D01*
G01X23601Y46639D02*
G01X13601Y46639D01*
G01X23601Y46560D02*
G01X23601Y46639D01*
G01X23601Y45897D02*
G01X23601Y46560D01*
G01X33601Y46639D02*
G01X23601Y46639D01*
G01X33601Y46560D02*
G01X33601Y46639D01*
G01X33601Y45897D02*
G01X33601Y46560D01*
G01X43601Y46639D02*
G01X33601Y46639D01*
G01X43601Y46560D02*
G01X43601Y46639D01*
G01X43601Y45897D02*
G01X43601Y46560D01*
G01X53601Y46639D02*
G01X43601Y46639D01*
G01X53601Y46560D02*
G01X53601Y46639D01*
G01X53601Y45897D02*
G01X53601Y46560D01*
G01X63601Y46639D02*
G01X63601Y46639D01*
G01X53601Y46639D01*
G01X63601Y45897D02*
G01X63601Y46560D01*
G01X63601Y46639D02*
G01X63601Y46639D01*
G01X63601Y46560D02*
G01X63601Y46639D01*
G01X73601Y45526D02*
G01X72489Y46639D01*
G01X63601Y46639D01*
G01X73601Y45526D02*
G01X73601Y45156D01*
G01X73601Y45897D02*
G01X73601Y45526D01*
G01X4716Y36642D02*
G01X3601Y35526D01*
G01X12760Y35897D02*
G01X12016Y36642D01*
G01X4716Y36642D01*
G01X4716Y36642D02*
G01X2758Y38597D01*
G01X2758Y44792D01*
G01X3121Y45156D01*
G01X3601Y45156D01*
G01X13601Y35897D02*
G01X13601Y36639D01*
G01X23601Y36639D02*
G01X13601Y36639D01*
G01X23601Y36560D02*
G01X23601Y36639D01*
G01X23601Y35897D02*
G01X23601Y36560D01*
G01X33601Y36639D02*
G01X23601Y36639D01*
G01X33601Y36560D02*
G01X33601Y36639D01*
G01X33601Y35897D02*
G01X33601Y36560D01*
G01X43601Y36639D02*
G01X33601Y36639D01*
G01X43601Y36560D02*
G01X43601Y36639D01*
G01X43601Y35897D02*
G01X43601Y36560D01*
G01X53601Y36639D02*
G01X43601Y36639D01*
G01X53601Y36560D02*
G01X53601Y36639D01*
G01X53601Y35897D02*
G01X53601Y36560D01*
G01X63601Y36639D02*
G01X53601Y36639D01*
G01X63601Y36560D02*
G01X63601Y36639D01*
G01X63601Y35897D02*
G01X63601Y36560D01*
G01X73599Y35608D02*
G01X72567Y36639D01*
G01X63601Y36639D01*
G01X73599Y35608D02*
G01X73599Y35158D01*
G01X73599Y35900D02*
G01X73599Y35608D01*
G01X4716Y26642D02*
G01X3601Y25527D01*
G01X12760Y25897D02*
G01X12016Y26642D01*
G01X4716Y26642D01*
G01X4716Y26642D02*
G01X2758Y28597D01*
G01X2758Y34792D01*
G01X3121Y35156D01*
G01X3601Y35156D01*
G01X13601Y25897D02*
G01X13601Y26639D01*
G01X23599Y26642D02*
G01X13601Y26642D01*
G01X13601Y26639D01*
G01X23599Y26642D02*
G01X23599Y26642D01*
G01X23599Y26560D02*
G01X23599Y26642D01*
G01X23599Y25900D02*
G01X23599Y26560D01*
G01X33601Y26639D02*
G01X33601Y26642D01*
G01X23599Y26642D01*
G01X33601Y26560D02*
G01X33601Y26639D01*
G01X33601Y25897D02*
G01X33601Y26560D01*
G01X43601Y26639D02*
G01X33601Y26639D01*
G01X43601Y26560D02*
G01X43601Y26639D01*
G01X43601Y25897D02*
G01X43601Y26560D01*
G01X53601Y26639D02*
G01X43601Y26639D01*
G01X53601Y26560D02*
G01X53601Y26639D01*
G01X53601Y25897D02*
G01X53601Y26560D01*
G01X63599Y26642D02*
G01X53601Y26642D01*
G01X53601Y26639D01*
G01X63599Y26642D02*
G01X63599Y26642D01*
G01X63599Y26560D02*
G01X63599Y26642D01*
G01X63599Y25900D02*
G01X63599Y26560D01*
G01X73599Y25529D02*
G01X72486Y26642D01*
G01X63599Y26642D01*
G01X73599Y25529D02*
G01X73599Y25158D01*
G01X73599Y25900D02*
G01X73599Y25529D01*
G01X4716Y16642D02*
G01X3601Y15527D01*
G01X12760Y15897D02*
G01X12016Y16642D01*
G01X4716Y16642D01*
G01X4716Y16642D02*
G01X2758Y18597D01*
G01X2758Y24792D01*
G01X3121Y25156D01*
G01X3601Y25156D01*
G01X13601Y15897D02*
G01X13601Y16639D01*
G01X23601Y16639D02*
G01X13601Y16639D01*
G01X23601Y16560D02*
G01X23601Y16639D01*
G01X23601Y15897D02*
G01X23601Y16560D01*
G01X33601Y16639D02*
G01X23601Y16639D01*
G01X33601Y16560D02*
G01X33601Y16639D01*
G01X33601Y15897D02*
G01X33601Y16560D01*
G01X43601Y16639D02*
G01X33601Y16639D01*
G01X43601Y16560D02*
G01X43601Y16639D01*
G01X43601Y15897D02*
G01X43601Y16560D01*
G01X53601Y16639D02*
G01X43601Y16639D01*
G01X53601Y16560D02*
G01X53601Y16639D01*
G01X53601Y15897D02*
G01X53601Y16560D01*
G01X63601Y16639D02*
G01X53601Y16639D01*
G01X63601Y16560D02*
G01X63601Y16639D01*
G01X63601Y15897D02*
G01X63601Y16560D01*
G01X73599Y15567D02*
G01X72527Y16639D01*
G01X63601Y16639D01*
G01X73599Y15567D02*
G01X73599Y15237D01*
G01X73599Y15900D02*
G01X73599Y15567D01*
G01X4716Y6642D02*
G01X3601Y5527D01*
G01X12760Y5897D02*
G01X12016Y6642D01*
G01X4716Y6642D01*
G01X4716Y6642D02*
G01X2758Y8597D01*
G01X2758Y14792D01*
G01X3121Y15156D01*
G01X3601Y15156D01*
G01X13601Y5897D02*
G01X13601Y6639D01*
G01X23599Y6642D02*
G01X13601Y6642D01*
G01X13601Y6639D01*
G01X23599Y6642D02*
G01X23599Y6642D01*
G01X23599Y6560D02*
G01X23599Y6642D01*
G01X23599Y5900D02*
G01X23599Y6560D01*
G01X33599Y5529D02*
G01X32486Y6642D01*
G01X23599Y6642D01*
G01X33599Y5529D02*
G01X33599Y5158D01*
G01X33599Y5900D02*
G01X33599Y5529D01*
G01X34577Y4737D02*
G01X34155Y5158D01*
G01X33599Y5158D01*
G01X34577Y1498D02*
G01X34577Y4737D01*
G01X13599Y75900D02*
G01X13599Y76641D01*
G01X3502Y75427D02*
G01X4716Y76641D01*
G01X13599Y76641D01*
G01X3502Y75427D02*
G01X3502Y75057D01*
G01X3502Y75798D02*
G01X3502Y75427D01*
G01X4378Y71297D02*
G01X4378Y74736D01*
G01X4058Y75057D01*
G01X3502Y75057D01*
G01X13599Y75900D02*
G01X13599Y75158D01*
G01X43599Y75900D02*
G01X43599Y75158D01*
G01X13599Y65900D02*
G01X12758Y65900D01*
G01X3599Y65529D02*
G01X3599Y65158D01*
G01X3599Y65900D02*
G01X3599Y65529D01*
G01X4577Y61498D02*
G01X4577Y64736D01*
G01X4155Y65158D01*
G01X3599Y65158D01*
G01X13599Y65900D02*
G01X13599Y65158D01*
G01X14577Y61498D02*
G01X14577Y64736D01*
G01X14155Y65158D01*
G01X13599Y65158D01*
G01X23599Y65900D02*
G01X23599Y65158D01*
G01X24577Y61498D02*
G01X24577Y64736D01*
G01X24155Y65158D01*
G01X23599Y65158D01*
G01X33599Y65900D02*
G01X33599Y65158D01*
G01X34577Y61498D02*
G01X34577Y64736D01*
G01X34155Y65158D01*
G01X33599Y65158D01*
G01X43599Y65900D02*
G01X43599Y65158D01*
G01X44577Y61498D02*
G01X44577Y64736D01*
G01X44155Y65158D01*
G01X43599Y65158D01*
G01X53601Y65897D02*
G01X53601Y65156D01*
G01X55077Y61498D02*
G01X55077Y64236D01*
G01X54157Y65156D01*
G01X53601Y65156D01*
G01X63599Y65900D02*
G01X63599Y65158D01*
G01X64576Y61498D02*
G01X64576Y64736D01*
G01X64155Y65158D01*
G01X63599Y65158D01*
G01X4577Y54947D02*
G01X7241Y54947D01*
G01X8831Y53357D01*
G01X14577Y53357D01*
G01X4577Y51498D02*
G01X4577Y54947D01*
G01X14577Y51498D02*
G01X14577Y53357D01*
G01X13599Y55900D02*
G01X13599Y55158D01*
G01X23599Y55900D02*
G01X23599Y55158D01*
G01X33601Y55897D02*
G01X33601Y55156D01*
G01X43601Y55897D02*
G01X43601Y55156D01*
G01X53601Y55897D02*
G01X53601Y55156D01*
G01X13601Y45897D02*
G01X12760Y45897D01*
G01X3601Y45526D02*
G01X3601Y45156D01*
G01X3601Y45897D02*
G01X3601Y45526D01*
G01X4577Y41498D02*
G01X4577Y44737D01*
G01X4157Y45156D01*
G01X3601Y45156D01*
G01X13601Y45897D02*
G01X13601Y45156D01*
G01X14577Y41498D02*
G01X14577Y44737D01*
G01X14157Y45156D01*
G01X13601Y45156D01*
G01X23601Y45897D02*
G01X23601Y45156D01*
G01X24577Y41498D02*
G01X24577Y44737D01*
G01X24157Y45156D01*
G01X23601Y45156D01*
G01X33601Y45897D02*
G01X33601Y45156D01*
G01X34577Y41498D02*
G01X34577Y44737D01*
G01X34157Y45156D01*
G01X33601Y45156D01*
G01X43601Y45897D02*
G01X43601Y45156D01*
G01X44577Y41498D02*
G01X44577Y44737D01*
G01X44157Y45156D01*
G01X43601Y45156D01*
G01X53601Y45897D02*
G01X53601Y45156D01*
G01X54576Y41498D02*
G01X54576Y44737D01*
G01X54157Y45156D01*
G01X53601Y45156D01*
G01X63601Y45897D02*
G01X63601Y45156D01*
G01X64576Y41498D02*
G01X64576Y44737D01*
G01X64157Y45156D01*
G01X63601Y45156D01*
G01X13601Y35897D02*
G01X12760Y35897D01*
G01X3601Y35526D02*
G01X3601Y35156D01*
G01X3601Y35897D02*
G01X3601Y35526D01*
G01X4577Y31498D02*
G01X4577Y34737D01*
G01X4157Y35156D01*
G01X3601Y35156D01*
G01X13601Y35897D02*
G01X13601Y35156D01*
G01X14577Y31498D02*
G01X14577Y34737D01*
G01X14157Y35156D01*
G01X13601Y35156D01*
G01X23601Y35897D02*
G01X23601Y35156D01*
G01X24577Y31498D02*
G01X24577Y34737D01*
G01X24157Y35156D01*
G01X23601Y35156D01*
G01X33601Y35897D02*
G01X33601Y35156D01*
G01X34577Y31498D02*
G01X34577Y34737D01*
G01X34157Y35156D01*
G01X33601Y35156D01*
G01X43601Y35897D02*
G01X43601Y35156D01*
G01X44577Y31498D02*
G01X44577Y34737D01*
G01X44157Y35156D01*
G01X43601Y35156D01*
G01X53601Y35897D02*
G01X53601Y35156D01*
G01X54576Y31498D02*
G01X54576Y34739D01*
G01X54157Y35156D01*
G01X53601Y35156D01*
G01X63601Y35897D02*
G01X63601Y35156D01*
G01X64576Y31498D02*
G01X64576Y34737D01*
G01X64157Y35156D01*
G01X63601Y35156D01*
G01X13601Y25897D02*
G01X12760Y25897D01*
G01X3601Y25527D02*
G01X3601Y25156D01*
G01X3601Y25897D02*
G01X3601Y25527D01*
G01X4577Y21498D02*
G01X4577Y24737D01*
G01X4157Y25156D01*
G01X3601Y25156D01*
G01X13601Y25897D02*
G01X13601Y25156D01*
G01X14577Y21498D02*
G01X14577Y24737D01*
G01X14157Y25156D01*
G01X13601Y25156D01*
G01X23599Y25900D02*
G01X23599Y25158D01*
G01X24577Y21498D02*
G01X24577Y24737D01*
G01X24155Y25158D01*
G01X23599Y25158D01*
G01X33601Y25897D02*
G01X33601Y25156D01*
G01X34577Y21498D02*
G01X34577Y24737D01*
G01X34157Y25156D01*
G01X33601Y25156D01*
G01X43601Y25897D02*
G01X43601Y25156D01*
G01X44577Y21498D02*
G01X44577Y24737D01*
G01X44157Y25156D01*
G01X43601Y25156D01*
G01X53601Y25897D02*
G01X53601Y25156D01*
G01X54576Y21498D02*
G01X54576Y24737D01*
G01X54157Y25156D01*
G01X53601Y25156D01*
G01X63599Y25900D02*
G01X63599Y25158D01*
G01X64576Y21498D02*
G01X64576Y24737D01*
G01X64155Y25158D01*
G01X63599Y25158D01*
G01X13601Y15897D02*
G01X12760Y15897D01*
G01X3601Y15527D02*
G01X3601Y15156D01*
G01X3601Y15897D02*
G01X3601Y15527D01*
G01X4577Y11498D02*
G01X4577Y14737D01*
G01X4157Y15156D01*
G01X3601Y15156D01*
G01X13601Y15897D02*
G01X13601Y15156D01*
G01X14577Y11498D02*
G01X14577Y14737D01*
G01X14157Y15156D01*
G01X13601Y15156D01*
G01X23601Y15897D02*
G01X23601Y15156D01*
G01X24577Y11498D02*
G01X24577Y14737D01*
G01X24157Y15156D01*
G01X23601Y15156D01*
G01X33601Y15897D02*
G01X33601Y15156D01*
G01X34577Y11498D02*
G01X34577Y14737D01*
G01X34157Y15156D01*
G01X33601Y15156D01*
G01X43601Y15897D02*
G01X43601Y15156D01*
G01X44577Y11498D02*
G01X44577Y14737D01*
G01X44157Y15156D01*
G01X43601Y15156D01*
G01X53601Y15897D02*
G01X53601Y15156D01*
G01X54576Y11498D02*
G01X54576Y14737D01*
G01X54157Y15156D01*
G01X53601Y15156D01*
G01X63601Y15897D02*
G01X63601Y15156D01*
G01X64576Y11498D02*
G01X64576Y14737D01*
G01X64157Y15156D01*
G01X63601Y15156D01*
G01X73599Y15237D02*
G01X74076Y15237D01*
G01X74576Y14737D01*
G01X74576Y11498D01*
G01X13601Y5897D02*
G01X12760Y5897D01*
G01X3601Y5527D02*
G01X3601Y5156D01*
G01X3601Y5897D02*
G01X3601Y5527D01*
G01X4577Y1498D02*
G01X4577Y4737D01*
G01X4157Y5156D01*
G01X3601Y5156D01*
G01X13601Y5897D02*
G01X13601Y5156D01*
G01X14577Y1498D02*
G01X14577Y4737D01*
G01X14157Y5156D01*
G01X13601Y5156D01*
G01X23599Y5900D02*
G01X23599Y5158D01*
G01X24577Y1498D02*
G01X24577Y4737D01*
G01X24155Y5158D01*
G01X23599Y5158D01*
G01X75077Y71498D02*
G01X75077Y74236D01*
G01X74155Y75158D01*
G01X73599Y75158D01*
G01X74576Y61498D02*
G01X74576Y64736D01*
G01X74155Y65158D01*
G01X73599Y65158D01*
G01X63599Y55900D02*
G01X63599Y55158D01*
G01X74576Y51498D02*
G01X74576Y54737D01*
G01X74157Y55156D01*
G01X73601Y55156D01*
G01X74576Y41498D02*
G01X74576Y44737D01*
G01X74157Y45156D01*
G01X73601Y45156D01*
G01X74576Y31498D02*
G01X74576Y34737D01*
G01X74155Y35158D01*
G01X73599Y35158D01*
G01X74576Y21498D02*
G01X74576Y24737D01*
G01X74155Y25158D01*
G01X73599Y25158D01*
G01X6301Y75798D02*
G01X11902Y75798D01*
G01X13599Y74099D01*
G01X15966Y70929D02*
G01X6136Y70929D01*
G01X5768Y71297D01*
G01X25968Y70929D02*
G01X15966Y70929D01*
G01X15966Y70929D02*
G01X15966Y71498D01*
G01X5227Y71297D02*
G01X5768Y71297D01*
G01X35968Y70929D02*
G01X25968Y70929D01*
G01X25968Y70929D02*
G01X25968Y71498D01*
G01X15425Y71498D02*
G01X15966Y71498D01*
G01X45968Y70929D02*
G01X35968Y70929D01*
G01X35968Y70929D02*
G01X35968Y71498D01*
G01X25425Y71498D02*
G01X25968Y71498D01*
G01X55968Y70929D02*
G01X45968Y70929D01*
G01X45968Y70929D02*
G01X45968Y71498D01*
G01X35425Y71498D02*
G01X35968Y71498D01*
G01X66172Y71112D02*
G01X65989Y70929D01*
G01X55968Y70929D01*
G01X55968Y70929D02*
G01X55968Y71498D01*
G01X45425Y71498D02*
G01X45968Y71498D01*
G01X65968Y71498D02*
G01X66172Y71295D01*
G01X66172Y71112D01*
G01X76469Y70810D02*
G01X66474Y70810D01*
G01X66172Y71112D01*
G01X76469Y70810D02*
G01X76469Y71498D01*
G01X76400Y63728D02*
G01X77348Y64676D01*
G01X77348Y68712D01*
G01X76469Y68712D01*
G01X76469Y70810D01*
G01X55425Y71498D02*
G01X55968Y71498D01*
G01X65425Y71498D02*
G01X65968Y71498D01*
G01X75925Y71498D02*
G01X76469Y71498D01*
G01X76400Y63728D02*
G01X76400Y63357D01*
G01X76400Y64099D02*
G01X76400Y63728D01*
G01X15966Y60657D02*
G01X6809Y60657D01*
G01X5966Y61498D01*
G01X25968Y60657D02*
G01X15966Y60657D01*
G01X15966Y60657D02*
G01X15966Y61498D01*
G01X5425Y61498D02*
G01X5966Y61498D01*
G01X35968Y60657D02*
G01X25968Y60657D01*
G01X25968Y60657D02*
G01X25968Y61498D01*
G01X15425Y61498D02*
G01X15966Y61498D01*
G01X45968Y60657D02*
G01X35968Y60657D01*
G01X35968Y60657D02*
G01X35968Y61498D01*
G01X25425Y61498D02*
G01X25968Y61498D01*
G01X56469Y60657D02*
G01X45968Y60657D01*
G01X45968Y60657D02*
G01X45968Y61498D01*
G01X35425Y61498D02*
G01X35968Y61498D01*
G01X65968Y60657D02*
G01X56469Y60657D01*
G01X56469Y60657D02*
G01X56469Y61498D01*
G01X45425Y61498D02*
G01X45968Y61498D01*
G01X75968Y60657D02*
G01X65968Y60657D01*
G01X65968Y60657D02*
G01X65968Y61498D01*
G01X55925Y61498D02*
G01X56469Y61498D01*
G01X76403Y53726D02*
G01X77243Y54569D01*
G01X77243Y60220D01*
G01X76809Y60657D01*
G01X75968Y60657D01*
G01X75968Y60657D02*
G01X75968Y61498D01*
G01X65425Y61498D02*
G01X65968Y61498D01*
G01X75425Y61498D02*
G01X75968Y61498D01*
G01X76403Y53726D02*
G01X76403Y53355D01*
G01X76403Y54096D02*
G01X76403Y53726D01*
G01X15968Y50929D02*
G01X6535Y50929D01*
G01X5969Y51498D01*
G01X25968Y50929D02*
G01X15968Y50929D01*
G01X15968Y50929D02*
G01X15968Y51498D01*
G01X5425Y51498D02*
G01X5969Y51498D01*
G01X35968Y50929D02*
G01X25968Y50929D01*
G01X25968Y50929D02*
G01X25968Y51498D01*
G01X15425Y51498D02*
G01X15968Y51498D01*
G01X45968Y50929D02*
G01X35968Y50929D01*
G01X35968Y50929D02*
G01X35968Y51498D01*
G01X25425Y51498D02*
G01X25968Y51498D01*
G01X55966Y50929D02*
G01X45968Y50929D01*
G01X45968Y50929D02*
G01X45968Y51498D01*
G01X35425Y51498D02*
G01X35968Y51498D01*
G01X65968Y50929D02*
G01X55966Y50929D01*
G01X55966Y50929D02*
G01X55966Y51498D01*
G01X45425Y51498D02*
G01X45968Y51498D01*
G01X75697Y51498D02*
G01X75130Y50929D01*
G01X65968Y50929D01*
G01X65968Y50929D02*
G01X65968Y51498D01*
G01X55425Y51498D02*
G01X55966Y51498D01*
G01X65425Y51498D02*
G01X65968Y51498D01*
G01X75697Y51498D02*
G01X75968Y51498D01*
G01X75425Y51498D02*
G01X75697Y51498D01*
G01X76403Y43726D02*
G01X77348Y44673D01*
G01X77348Y50116D01*
G01X75968Y51498D01*
G01X76403Y43726D02*
G01X76403Y43355D01*
G01X76403Y44096D02*
G01X76403Y43726D01*
G01X15968Y40929D02*
G01X6535Y40929D01*
G01X5969Y41498D01*
G01X25968Y40929D02*
G01X15968Y40929D01*
G01X15968Y40929D02*
G01X15968Y41498D01*
G01X5425Y41498D02*
G01X5969Y41498D01*
G01X35968Y40929D02*
G01X25968Y40929D01*
G01X25968Y40929D02*
G01X25968Y41498D01*
G01X15425Y41498D02*
G01X15968Y41498D01*
G01X45968Y40929D02*
G01X35968Y40929D01*
G01X35968Y40929D02*
G01X35968Y41498D01*
G01X25425Y41498D02*
G01X25968Y41498D01*
G01X55968Y40929D02*
G01X45968Y40929D01*
G01X45968Y40929D02*
G01X45968Y41498D01*
G01X35425Y41498D02*
G01X35968Y41498D01*
G01X65968Y40929D02*
G01X55968Y40929D01*
G01X55968Y40929D02*
G01X55968Y41498D01*
G01X45425Y41498D02*
G01X45968Y41498D01*
G01X75697Y41498D02*
G01X75130Y40929D01*
G01X65968Y40929D01*
G01X65968Y40929D02*
G01X65968Y41498D01*
G01X55425Y41498D02*
G01X55968Y41498D01*
G01X65425Y41498D02*
G01X65968Y41498D01*
G01X75697Y41498D02*
G01X75968Y41498D01*
G01X75425Y41498D02*
G01X75697Y41498D01*
G01X76400Y33728D02*
G01X77348Y34676D01*
G01X77348Y40119D01*
G01X75968Y41498D01*
G01X76400Y33728D02*
G01X76400Y33357D01*
G01X76400Y34099D02*
G01X76400Y33728D01*
G01X15968Y30929D02*
G01X6535Y30929D01*
G01X5969Y31498D01*
G01X25968Y30929D02*
G01X15968Y30929D01*
G01X15968Y30929D02*
G01X15968Y31498D01*
G01X5425Y31498D02*
G01X5969Y31498D01*
G01X35968Y30929D02*
G01X25968Y30929D01*
G01X25968Y30929D02*
G01X25968Y31498D01*
G01X15425Y31498D02*
G01X15968Y31498D01*
G01X45968Y30929D02*
G01X35968Y30929D01*
G01X35968Y30929D02*
G01X35968Y31498D01*
G01X25425Y31498D02*
G01X25968Y31498D01*
G01X55966Y30929D02*
G01X45968Y30929D01*
G01X45968Y30929D02*
G01X45968Y31498D01*
G01X35425Y31498D02*
G01X35968Y31498D01*
G01X65968Y30929D02*
G01X55966Y30929D01*
G01X55966Y30929D02*
G01X55966Y31498D01*
G01X45425Y31498D02*
G01X45968Y31498D01*
G01X75697Y31498D02*
G01X75130Y30929D01*
G01X65968Y30929D01*
G01X65968Y30929D02*
G01X65968Y31498D01*
G01X55425Y31498D02*
G01X55966Y31498D01*
G01X65425Y31498D02*
G01X65968Y31498D01*
G01X75697Y31498D02*
G01X75968Y31498D01*
G01X75425Y31498D02*
G01X75697Y31498D01*
G01X76400Y23728D02*
G01X77348Y24676D01*
G01X77348Y30119D01*
G01X75968Y31498D01*
G01X76400Y23728D02*
G01X76400Y23357D01*
G01X76400Y24099D02*
G01X76400Y23728D01*
G01X15968Y20929D02*
G01X6535Y20929D01*
G01X5969Y21498D01*
G01X25968Y20929D02*
G01X15968Y20929D01*
G01X15968Y20929D02*
G01X15968Y21498D01*
G01X5425Y21498D02*
G01X5969Y21498D01*
G01X35968Y20929D02*
G01X25968Y20929D01*
G01X25968Y20929D02*
G01X25968Y21498D01*
G01X15425Y21498D02*
G01X15968Y21498D01*
G01X45968Y20929D02*
G01X35968Y20929D01*
G01X35968Y20929D02*
G01X35968Y21498D01*
G01X25425Y21498D02*
G01X25968Y21498D01*
G01X55968Y20929D02*
G01X45968Y20929D01*
G01X45968Y20929D02*
G01X45968Y21498D01*
G01X35425Y21498D02*
G01X35968Y21498D01*
G01X65968Y20929D02*
G01X55968Y20929D01*
G01X55968Y20929D02*
G01X55968Y21498D01*
G01X45425Y21498D02*
G01X45968Y21498D01*
G01X75697Y21498D02*
G01X75130Y20929D01*
G01X65968Y20929D01*
G01X65968Y20929D02*
G01X65968Y21498D01*
G01X55425Y21498D02*
G01X55968Y21498D01*
G01X65425Y21498D02*
G01X65968Y21498D01*
G01X75697Y21498D02*
G01X75968Y21498D01*
G01X75425Y21498D02*
G01X75697Y21498D01*
G01X76400Y13728D02*
G01X77348Y14676D01*
G01X77348Y20119D01*
G01X75968Y21498D01*
G01X76400Y13728D02*
G01X76400Y13357D01*
G01X76400Y14099D02*
G01X76400Y13728D01*
G01X15968Y10929D02*
G01X6535Y10929D01*
G01X5969Y11498D01*
G01X25968Y10929D02*
G01X15968Y10929D01*
G01X15968Y10929D02*
G01X15968Y11498D01*
G01X5425Y11498D02*
G01X5969Y11498D01*
G01X35968Y10929D02*
G01X25968Y10929D01*
G01X25968Y10929D02*
G01X25968Y11498D01*
G01X15425Y11498D02*
G01X15968Y11498D01*
G01X45968Y10929D02*
G01X35968Y10929D01*
G01X35968Y10929D02*
G01X35968Y11498D01*
G01X25425Y11498D02*
G01X25968Y11498D01*
G01X55968Y10929D02*
G01X45968Y10929D01*
G01X45968Y10929D02*
G01X45968Y11498D01*
G01X35425Y11498D02*
G01X35968Y11498D01*
G01X65968Y10929D02*
G01X55968Y10929D01*
G01X55968Y10929D02*
G01X55968Y11498D01*
G01X45425Y11498D02*
G01X45968Y11498D01*
G01X75697Y11498D02*
G01X75130Y10929D01*
G01X65968Y10929D01*
G01X65968Y10929D02*
G01X65968Y11498D01*
G01X55425Y11498D02*
G01X55968Y11498D01*
G01X65425Y11498D02*
G01X65968Y11498D01*
G01X75697Y11498D02*
G01X75968Y11498D01*
G01X75425Y11498D02*
G01X75697Y11498D01*
G01X76400Y3728D02*
G01X77348Y4676D01*
G01X77348Y10119D01*
G01X75968Y11498D01*
G01X76400Y3728D02*
G01X76400Y3357D01*
G01X76400Y4099D02*
G01X76400Y3728D01*
G01X15968Y932D02*
G01X6535Y932D01*
G01X5969Y1498D01*
G01X25968Y932D02*
G01X15968Y932D01*
G01X15968Y932D02*
G01X15968Y1498D01*
G01X5425Y1498D02*
G01X5969Y1498D01*
G01X35968Y932D02*
G01X25968Y932D01*
G01X25968Y932D02*
G01X25968Y1498D01*
G01X15425Y1498D02*
G01X15968Y1498D01*
G01X45968Y932D02*
G01X35968Y932D01*
G01X35968Y932D02*
G01X35968Y1498D01*
G01X25425Y1498D02*
G01X25968Y1498D01*
G01X55968Y932D02*
G01X45968Y932D01*
G01X45968Y932D02*
G01X45968Y1498D01*
G01X35425Y1498D02*
G01X35968Y1498D01*
G01X65968Y932D02*
G01X55968Y932D01*
G01X55968Y932D02*
G01X55968Y1498D01*
G01X45425Y1498D02*
G01X45968Y1498D01*
G01X75425Y932D02*
G01X65968Y932D01*
G01X65968Y932D02*
G01X65968Y1498D01*
G01X55425Y1498D02*
G01X55968Y1498D01*
G01X65425Y1498D02*
G01X65968Y1498D01*
G01X75425Y1498D02*
G01X75425Y932D01*
G01X76400Y3357D02*
G01X75425Y2382D01*
G01X75425Y1498D01*
G01X6301Y73997D02*
G01X6301Y73256D01*
G01X5227Y71297D02*
G01X5227Y72179D01*
G01X6301Y73256D01*
G01X16400Y74099D02*
G01X16400Y73357D01*
G01X15425Y71498D02*
G01X15425Y72382D01*
G01X16400Y73357D01*
G01X26403Y74096D02*
G01X26403Y73355D01*
G01X25425Y71498D02*
G01X25425Y72379D01*
G01X26403Y73355D01*
G01X36400Y74099D02*
G01X36400Y73357D01*
G01X35425Y71498D02*
G01X35425Y72382D01*
G01X36400Y73357D01*
G01X46400Y74099D02*
G01X46400Y73357D01*
G01X45425Y71498D02*
G01X45425Y72382D01*
G01X46400Y73357D01*
G01X56400Y74099D02*
G01X56400Y73357D01*
G01X55425Y71498D02*
G01X55425Y72382D01*
G01X56400Y73357D01*
G01X66400Y74099D02*
G01X66400Y73357D01*
G01X65425Y71498D02*
G01X65425Y72382D01*
G01X66400Y73357D01*
G01X76400Y74099D02*
G01X76400Y73357D01*
G01X75925Y71498D02*
G01X75925Y72882D01*
G01X76400Y73357D01*
G01X6400Y64099D02*
G01X6400Y63357D01*
G01X5425Y61498D02*
G01X5425Y62382D01*
G01X6400Y63357D01*
G01X16400Y64099D02*
G01X16400Y63357D01*
G01X15425Y61498D02*
G01X15425Y62382D01*
G01X16400Y63357D01*
G01X26400Y64099D02*
G01X26400Y63357D01*
G01X25425Y61498D02*
G01X25425Y62382D01*
G01X26400Y63357D01*
G01X36400Y64099D02*
G01X36400Y63357D01*
G01X35425Y61498D02*
G01X35425Y62382D01*
G01X36400Y63357D01*
G01X46400Y64099D02*
G01X46400Y63357D01*
G01X45425Y61498D02*
G01X45425Y62382D01*
G01X46400Y63357D01*
G01X56403Y64096D02*
G01X56403Y63355D01*
G01X55925Y61498D02*
G01X55925Y62880D01*
G01X56403Y63355D01*
G01X66400Y64099D02*
G01X66400Y63357D01*
G01X65425Y61498D02*
G01X65425Y62382D01*
G01X66400Y63357D01*
G01X75425Y61498D02*
G01X75425Y62382D01*
G01X76400Y63357D01*
G01X6400Y54099D02*
G01X6400Y53357D01*
G01X5425Y51498D02*
G01X5425Y52382D01*
G01X6400Y53357D01*
G01X16400Y54099D02*
G01X16400Y53357D01*
G01X15425Y51498D02*
G01X15425Y52382D01*
G01X16400Y53357D01*
G01X26400Y54099D02*
G01X26400Y53357D01*
G01X25425Y51498D02*
G01X25425Y52382D01*
G01X26400Y53357D01*
G01X36403Y54096D02*
G01X36403Y53355D01*
G01X35425Y51498D02*
G01X35425Y52379D01*
G01X36403Y53355D01*
G01X46403Y54096D02*
G01X46403Y53355D01*
G01X45425Y51498D02*
G01X45425Y52379D01*
G01X46403Y53355D01*
G01X56403Y54096D02*
G01X56403Y53355D01*
G01X55425Y51498D02*
G01X55425Y52377D01*
G01X56403Y53355D01*
G01X66400Y54099D02*
G01X66400Y53357D01*
G01X65425Y51498D02*
G01X65425Y52382D01*
G01X66400Y53357D01*
G01X75425Y51498D02*
G01X75425Y52379D01*
G01X76403Y53355D01*
G01X6403Y44096D02*
G01X6403Y43355D01*
G01X5425Y41498D02*
G01X5425Y42379D01*
G01X6403Y43355D01*
G01X16403Y44096D02*
G01X16403Y43355D01*
G01X15425Y41498D02*
G01X15425Y42379D01*
G01X16403Y43355D01*
G01X26403Y44096D02*
G01X26403Y43355D01*
G01X25425Y41498D02*
G01X25425Y42379D01*
G01X26403Y43355D01*
G01X36403Y44096D02*
G01X36403Y43355D01*
G01X35425Y41498D02*
G01X35425Y42379D01*
G01X36403Y43355D01*
G01X46403Y44096D02*
G01X46403Y43355D01*
G01X45425Y41498D02*
G01X45425Y42379D01*
G01X46403Y43355D01*
G01X56403Y44096D02*
G01X56403Y43355D01*
G01X55425Y41498D02*
G01X55425Y42379D01*
G01X56403Y43355D01*
G01X66403Y44096D02*
G01X66403Y43355D01*
G01X65425Y41498D02*
G01X65425Y42379D01*
G01X66403Y43355D01*
G01X75425Y41498D02*
G01X75425Y42379D01*
G01X76403Y43355D01*
G01X6403Y34096D02*
G01X6403Y33355D01*
G01X5425Y31498D02*
G01X5425Y32379D01*
G01X6403Y33355D01*
G01X16403Y34096D02*
G01X16403Y33355D01*
G01X15425Y31498D02*
G01X15425Y32379D01*
G01X16403Y33355D01*
G01X26403Y34096D02*
G01X26403Y33355D01*
G01X25425Y31498D02*
G01X25425Y32379D01*
G01X26403Y33355D01*
G01X36403Y34096D02*
G01X36403Y33355D01*
G01X35425Y31498D02*
G01X35425Y32379D01*
G01X36403Y33355D01*
G01X46403Y34096D02*
G01X46403Y33355D01*
G01X45425Y31498D02*
G01X45425Y32379D01*
G01X46403Y33355D01*
G01X56403Y34096D02*
G01X56403Y33355D01*
G01X55425Y31498D02*
G01X55425Y32377D01*
G01X56403Y33355D01*
G01X66403Y34096D02*
G01X66403Y33355D01*
G01X65425Y31498D02*
G01X65425Y32379D01*
G01X66403Y33355D01*
G01X75425Y31498D02*
G01X75425Y32382D01*
G01X76400Y33357D01*
G01X6403Y24096D02*
G01X6403Y23355D01*
G01X5425Y21498D02*
G01X5425Y22379D01*
G01X6403Y23355D01*
G01X16403Y24096D02*
G01X16403Y23355D01*
G01X15425Y21498D02*
G01X15425Y22379D01*
G01X16403Y23355D01*
G01X26400Y24099D02*
G01X26400Y23357D01*
G01X25425Y21498D02*
G01X25425Y22382D01*
G01X26400Y23357D01*
G01X36403Y24096D02*
G01X36403Y23355D01*
G01X35425Y21498D02*
G01X35425Y22379D01*
G01X36403Y23355D01*
G01X46403Y24096D02*
G01X46403Y23355D01*
G01X45425Y21498D02*
G01X45425Y22379D01*
G01X46403Y23355D01*
G01X56403Y24096D02*
G01X56403Y23355D01*
G01X55425Y21498D02*
G01X55425Y22379D01*
G01X56403Y23355D01*
G01X66400Y24099D02*
G01X66400Y23357D01*
G01X65425Y21498D02*
G01X65425Y22382D01*
G01X66400Y23357D01*
G01X75425Y21498D02*
G01X75425Y22382D01*
G01X76400Y23357D01*
G01X6403Y14097D02*
G01X6403Y13355D01*
G01X5425Y11498D02*
G01X5425Y12379D01*
G01X6403Y13355D01*
G01X16403Y14097D02*
G01X16403Y13355D01*
G01X15425Y11498D02*
G01X15425Y12379D01*
G01X16403Y13355D01*
G01X26403Y14097D02*
G01X26403Y13355D01*
G01X25425Y11498D02*
G01X25425Y12379D01*
G01X26403Y13355D01*
G01X36403Y14097D02*
G01X36403Y13355D01*
G01X35425Y11498D02*
G01X35425Y12379D01*
G01X36403Y13355D01*
G01X46403Y14097D02*
G01X46403Y13355D01*
G01X45425Y11498D02*
G01X45425Y12379D01*
G01X46403Y13355D01*
G01X56403Y14097D02*
G01X56403Y13355D01*
G01X55425Y11498D02*
G01X55425Y12379D01*
G01X56403Y13355D01*
G01X66403Y14097D02*
G01X66403Y13355D01*
G01X65425Y11498D02*
G01X65425Y12379D01*
G01X66403Y13355D01*
G01X75425Y11498D02*
G01X75425Y12382D01*
G01X76400Y13357D01*
G01X6403Y4097D02*
G01X6403Y3355D01*
G01X5425Y1498D02*
G01X5425Y2379D01*
G01X6403Y3355D01*
G01X16403Y4097D02*
G01X16403Y3355D01*
G01X15425Y1498D02*
G01X15425Y2379D01*
G01X16403Y3355D01*
G01X26400Y4099D02*
G01X26400Y3357D01*
G01X25425Y1498D02*
G01X25425Y2382D01*
G01X26400Y3357D01*
G01X36400Y4099D02*
G01X36400Y3357D01*
G01X35425Y1498D02*
G01X35425Y2382D01*
G01X36400Y3357D01*
G01X46403Y4097D02*
G01X46403Y3355D01*
G01X45425Y1498D02*
G01X45425Y2379D01*
G01X46403Y3355D01*
G01X56400Y4099D02*
G01X56400Y3357D01*
G01X55425Y1498D02*
G01X55425Y2382D01*
G01X56400Y3357D01*
G01X66403Y4097D02*
G01X66403Y3355D01*
G01X65425Y1498D02*
G01X65425Y2379D01*
G01X66403Y3355D01*
G01X3502Y73997D02*
G01X3502Y71160D01*
G01X7650Y67012D01*
G01X76029Y67012D01*
G01X76400Y66641D01*
G01X76400Y65900D02*
G01X76400Y66641D01*
G01X16400Y75900D02*
G01X17241Y75900D01*
G01X23601Y74096D02*
G01X23601Y74841D01*
G01X23601Y74841D02*
G01X24122Y74841D01*
G01X24480Y75199D01*
G01X24480Y76593D01*
G01X24432Y76641D01*
G01X17983Y76641D01*
G01X17241Y75900D01*
G01X26403Y75897D02*
G01X26403Y76639D01*
G01X33599Y74099D02*
G01X33599Y74841D01*
G01X33599Y74841D02*
G01X34119Y74841D01*
G01X34477Y75199D01*
G01X34477Y76596D01*
G01X34429Y76641D01*
G01X26403Y76641D01*
G01X26403Y76639D01*
G01X36400Y75900D02*
G01X41800Y75900D01*
G01X43599Y74099D01*
G01X46400Y75900D02*
G01X46400Y75158D01*
G01X53599Y74099D02*
G01X52542Y75158D01*
G01X46400Y75158D01*
G01X56400Y75900D02*
G01X56400Y75158D01*
G01X63599Y74099D02*
G01X63599Y74841D01*
G01X63599Y74841D02*
G01X56715Y74841D01*
G01X56400Y75158D01*
G01X66400Y75900D02*
G01X71800Y75900D01*
G01X73599Y74099D01*
G01X6400Y65900D02*
G01X11800Y65900D01*
G01X13599Y64099D01*
G01X76403Y55897D02*
G01X76403Y56639D01*
G01X76403Y56639D02*
G01X73540Y59502D01*
G01X5534Y59502D01*
G01X3599Y61437D01*
G01X3599Y64099D01*
G01X16400Y65900D02*
G01X21800Y65900D01*
G01X23599Y64099D01*
G01X26400Y65900D02*
G01X31800Y65900D01*
G01X33599Y64099D01*
G01X36400Y65900D02*
G01X41800Y65900D01*
G01X43599Y64099D01*
G01X46400Y65900D02*
G01X51800Y65900D01*
G01X53601Y64096D01*
G01X56403Y65897D02*
G01X56403Y65156D01*
G01X56403Y65156D02*
G01X62542Y65156D01*
G01X63599Y64099D01*
G01X66400Y65900D02*
G01X71800Y65900D01*
G01X73599Y64099D01*
G01X6400Y55900D02*
G01X11800Y55900D01*
G01X13599Y54099D01*
G01X3599Y54099D02*
G01X3599Y51437D01*
G01X8026Y47010D01*
G01X76032Y47010D01*
G01X76403Y46639D01*
G01X76403Y45897D02*
G01X76403Y46639D01*
G01X16400Y55900D02*
G01X21800Y55900D01*
G01X23599Y54099D01*
G01X26400Y55900D02*
G01X31800Y55900D01*
G01X33601Y54096D01*
G01X36403Y55897D02*
G01X41800Y55897D01*
G01X43601Y54096D01*
G01X46403Y55897D02*
G01X51800Y55897D01*
G01X53601Y54096D01*
G01X56403Y55897D02*
G01X61800Y55897D01*
G01X63599Y54099D01*
G01X66400Y55900D02*
G01X71800Y55900D01*
G01X73601Y54096D01*
G01X6403Y45897D02*
G01X11800Y45897D01*
G01X13601Y44096D01*
G01X3601Y44096D02*
G01X3601Y41435D01*
G01X8072Y36964D01*
G01X76078Y36964D01*
G01X76400Y36642D01*
G01X76400Y35900D02*
G01X76400Y36642D01*
G01X16403Y45897D02*
G01X21800Y45897D01*
G01X23601Y44096D01*
G01X26403Y45897D02*
G01X31800Y45897D01*
G01X33601Y44096D01*
G01X36403Y45897D02*
G01X41800Y45897D01*
G01X43601Y44096D01*
G01X46403Y45897D02*
G01X51800Y45897D01*
G01X53601Y44096D01*
G01X56403Y45897D02*
G01X61800Y45897D01*
G01X63601Y44096D01*
G01X66403Y45897D02*
G01X71800Y45897D01*
G01X73601Y44096D01*
G01X6403Y35897D02*
G01X11800Y35897D01*
G01X13601Y34096D01*
G01X3601Y34096D02*
G01X3601Y31435D01*
G01X8026Y27012D01*
G01X76029Y27012D01*
G01X76400Y26642D01*
G01X76400Y25900D02*
G01X76400Y26642D01*
G01X16403Y35897D02*
G01X21800Y35897D01*
G01X23601Y34096D01*
G01X26403Y35897D02*
G01X31800Y35897D01*
G01X33601Y34096D01*
G01X36403Y35897D02*
G01X41800Y35897D01*
G01X43601Y34096D01*
G01X46403Y35897D02*
G01X51800Y35897D01*
G01X53601Y34096D01*
G01X56403Y35897D02*
G01X61800Y35897D01*
G01X63601Y34096D01*
G01X66403Y35897D02*
G01X66403Y35156D01*
G01X66403Y35156D02*
G01X72542Y35156D01*
G01X73599Y34099D01*
G01X6403Y25897D02*
G01X11800Y25897D01*
G01X13601Y24096D01*
G01X3601Y24096D02*
G01X3601Y21435D01*
G01X8072Y16964D01*
G01X76078Y16964D01*
G01X76400Y16642D01*
G01X76400Y15900D02*
G01X76400Y16642D01*
G01X16403Y25897D02*
G01X16403Y25156D01*
G01X16403Y25156D02*
G01X22542Y25156D01*
G01X23599Y24099D01*
G01X26400Y25900D02*
G01X31800Y25900D01*
G01X33601Y24096D01*
G01X36403Y25897D02*
G01X41800Y25897D01*
G01X43601Y24096D01*
G01X46403Y25897D02*
G01X51800Y25897D01*
G01X53601Y24096D01*
G01X56403Y25897D02*
G01X56403Y25156D01*
G01X56403Y25156D02*
G01X62542Y25156D01*
G01X63599Y24099D01*
G01X66400Y25900D02*
G01X71800Y25900D01*
G01X73599Y24099D01*
G01X6403Y15897D02*
G01X11800Y15897D01*
G01X13601Y14097D01*
G01X3601Y14097D02*
G01X3601Y11435D01*
G01X8026Y7012D01*
G01X76029Y7012D01*
G01X76400Y6642D01*
G01X76400Y5900D02*
G01X76400Y6642D01*
G01X16403Y15897D02*
G01X21800Y15897D01*
G01X23601Y14097D01*
G01X26403Y15897D02*
G01X31800Y15897D01*
G01X33601Y14097D01*
G01X36403Y15897D02*
G01X41800Y15897D01*
G01X43601Y14097D01*
G01X46403Y15897D02*
G01X51800Y15897D01*
G01X53601Y14097D01*
G01X56403Y15897D02*
G01X61800Y15897D01*
G01X63601Y14097D01*
G01X66403Y15897D02*
G01X66403Y15156D01*
G01X73599Y14099D02*
G01X73599Y14841D01*
G01X66403Y15156D02*
G01X66715Y14841D01*
G01X73599Y14841D01*
G01X6403Y5897D02*
G01X11800Y5897D01*
G01X13601Y4097D01*
G01X16403Y5897D02*
G01X16403Y5156D01*
G01X16403Y5156D02*
G01X22542Y5156D01*
G01X23599Y4099D01*
G01X26400Y5900D02*
G01X31800Y5900D01*
G01X33599Y4099D01*
G01X43601Y4097D02*
G01X43601Y4841D01*
G01X43601Y4841D02*
G01X44157Y4841D01*
G01X44470Y5151D01*
G01X44470Y6522D01*
G01X44348Y6642D01*
G01X36400Y6642D01*
G01X36400Y5900D02*
G01X36400Y6642D01*
G01X46403Y5897D02*
G01X46403Y6639D01*
G01X53599Y4099D02*
G01X53599Y4841D01*
G01X53599Y4841D02*
G01X54119Y4841D01*
G01X54477Y5199D01*
G01X54477Y6596D01*
G01X54429Y6642D01*
G01X46403Y6642D01*
G01X46403Y6639D01*
G01X63601Y4097D02*
G01X63601Y4841D01*
G01X63601Y4841D02*
G01X64157Y4841D01*
G01X64470Y5151D01*
G01X64470Y6522D01*
G01X64348Y6642D01*
G01X56400Y6642D01*
G01X56400Y5900D02*
G01X56400Y6642D01*
G01X66403Y5897D02*
G01X66403Y6639D01*
G01X73599Y4099D02*
G01X73599Y4841D01*
G01X73599Y4841D02*
G01X74157Y4841D01*
G01X74546Y5232D01*
G01X74546Y6443D01*
G01X74348Y6642D01*
G01X66403Y6642D01*
G01X66403Y6639D01*
G54D10*
G01X76399Y75899D02*
G01X76399Y77600D01*
G01X75502Y78498D01*
G01X3601Y4098D02*
G01X1598Y4098D01*
G01X1499Y3999D01*
G01X1499Y4999D01*
G01X6402Y4098D02*
G01X8901Y4098D01*
G01X8999Y3999D01*
G01X3601Y5898D02*
G01X3101Y5898D01*
G01X1500Y7499D01*
G01X76399Y74099D02*
G01X77399Y74099D01*
G01X77400Y74099D01*
G01X79001Y72498D01*
G01X73599Y75899D02*
G01X73599Y76899D01*
G01X71999Y78499D01*
G54D13*
G01X3501Y75798D03*
G01X6301Y75798D03*
G01X6301Y73998D03*
G01X3501Y73998D03*
G01X13599Y75899D03*
G01X16400Y75899D03*
G01X16400Y74099D03*
G01X13599Y74099D03*
G01X23601Y75898D03*
G01X26401Y75898D03*
G01X26401Y74098D03*
G01X23601Y74098D03*
G01X33599Y75899D03*
G01X36399Y75899D03*
G01X36399Y74099D03*
G01X33599Y74099D03*
G01X43599Y75899D03*
G01X46399Y75899D03*
G01X46399Y74099D03*
G01X43599Y74099D03*
G01X53599Y75899D03*
G01X56399Y75899D03*
G01X56399Y74099D03*
G01X53599Y74099D03*
G01X63599Y75899D03*
G01X66399Y75899D03*
G01X66399Y74099D03*
G01X63599Y74099D03*
G01X73599Y75899D03*
G01X76399Y75899D03*
G01X76399Y74099D03*
G01X73599Y74099D03*
G01X3599Y65899D03*
G01X6400Y65899D03*
G01X6400Y64099D03*
G01X3599Y64099D03*
G01X13599Y65899D03*
G01X16400Y65899D03*
G01X16400Y64099D03*
G01X13599Y64099D03*
G01X23599Y65899D03*
G01X26399Y65899D03*
G01X26399Y64099D03*
G01X23599Y64099D03*
G01X33599Y65899D03*
G01X36399Y65899D03*
G01X36399Y64099D03*
G01X33599Y64099D03*
G01X43599Y65899D03*
G01X46399Y65899D03*
G01X46399Y64099D03*
G01X43599Y64099D03*
G01X53601Y65898D03*
G01X56401Y65898D03*
G01X56401Y64098D03*
G01X53601Y64098D03*
G01X63599Y65899D03*
G01X66399Y65899D03*
G01X66399Y64099D03*
G01X63599Y64099D03*
G01X73599Y65899D03*
G01X76399Y65899D03*
G01X76399Y64099D03*
G01X73599Y64099D03*
G01X3599Y55899D03*
G01X6400Y55899D03*
G01X6400Y54099D03*
G01X3599Y54099D03*
G01X13599Y55899D03*
G01X16400Y55899D03*
G01X16400Y54099D03*
G01X13599Y54099D03*
G01X23599Y55899D03*
G01X26399Y55899D03*
G01X26399Y54099D03*
G01X23599Y54099D03*
G01X33601Y55898D03*
G01X36402Y55898D03*
G01X36402Y54098D03*
G01X33601Y54098D03*
G01X43601Y55898D03*
G01X46401Y55898D03*
G01X46401Y54098D03*
G01X43601Y54098D03*
G01X53601Y55898D03*
G01X56401Y55898D03*
G01X56401Y54098D03*
G01X53601Y54098D03*
G01X63599Y55899D03*
G01X66399Y55899D03*
G01X66399Y54099D03*
G01X63599Y54099D03*
G01X73601Y55898D03*
G01X76401Y55898D03*
G01X76401Y54098D03*
G01X73601Y54098D03*
G01X3601Y45898D03*
G01X6402Y45898D03*
G01X6402Y44098D03*
G01X3601Y44098D03*
G01X13601Y45898D03*
G01X16402Y45898D03*
G01X16402Y44098D03*
G01X13601Y44098D03*
G01X23601Y45898D03*
G01X26401Y45898D03*
G01X26401Y44098D03*
G01X23601Y44098D03*
G01X33601Y45898D03*
G01X36402Y45898D03*
G01X36402Y44098D03*
G01X33601Y44098D03*
G01X43601Y45898D03*
G01X46401Y45898D03*
G01X46401Y44098D03*
G01X43601Y44098D03*
G01X53601Y45898D03*
G01X56401Y45898D03*
G01X56401Y44098D03*
G01X53601Y44098D03*
G01X63601Y45898D03*
G01X66401Y45898D03*
G01X66401Y44098D03*
G01X63601Y44098D03*
G01X73601Y45898D03*
G01X76401Y45898D03*
G01X76401Y44098D03*
G01X73601Y44098D03*
G01X3601Y35898D03*
G01X6402Y35898D03*
G01X6402Y34098D03*
G01X3601Y34098D03*
G01X13601Y35898D03*
G01X16402Y35898D03*
G01X16402Y34098D03*
G01X13601Y34098D03*
G01X23601Y35898D03*
G01X26401Y35898D03*
G01X26401Y34098D03*
G01X23601Y34098D03*
G01X33601Y35898D03*
G01X36402Y35898D03*
G01X36402Y34098D03*
G01X33601Y34098D03*
G01X43601Y35898D03*
G01X46401Y35898D03*
G01X46401Y34098D03*
G01X43601Y34098D03*
G01X53601Y35898D03*
G01X56401Y35898D03*
G01X56401Y34098D03*
G01X53601Y34098D03*
G01X63601Y35898D03*
G01X66401Y35898D03*
G01X66401Y34098D03*
G01X63601Y34098D03*
G01X73599Y35899D03*
G01X76399Y35899D03*
G01X76399Y34100D03*
G01X73599Y34100D03*
G01X3601Y25898D03*
G01X6402Y25898D03*
G01X6402Y24098D03*
G01X3601Y24098D03*
G01X13601Y25898D03*
G01X16402Y25898D03*
G01X16402Y24098D03*
G01X13601Y24098D03*
G01X23599Y25899D03*
G01X26399Y25899D03*
G01X26399Y24100D03*
G01X23599Y24100D03*
G01X33601Y25898D03*
G01X36402Y25898D03*
G01X36402Y24098D03*
G01X33601Y24098D03*
G01X43601Y25898D03*
G01X46401Y25898D03*
G01X46401Y24098D03*
G01X43601Y24098D03*
G01X53601Y25898D03*
G01X56401Y25898D03*
G01X56401Y24098D03*
G01X53601Y24098D03*
G01X63599Y25899D03*
G01X66399Y25899D03*
G01X66399Y24100D03*
G01X63599Y24100D03*
G01X73599Y25899D03*
G01X76399Y25899D03*
G01X76399Y24100D03*
G01X73599Y24100D03*
G01X3601Y15898D03*
G01X6402Y15898D03*
G01X6402Y14098D03*
G01X3601Y14098D03*
G01X13601Y15898D03*
G01X16402Y15898D03*
G01X16402Y14098D03*
G01X13601Y14098D03*
G01X23601Y15898D03*
G01X26401Y15898D03*
G01X26401Y14098D03*
G01X23601Y14098D03*
G01X33601Y15898D03*
G01X36402Y15898D03*
G01X36402Y14098D03*
G01X33601Y14098D03*
G01X43601Y15898D03*
G01X46401Y15898D03*
G01X46401Y14098D03*
G01X43601Y14098D03*
G01X53601Y15898D03*
G01X56401Y15898D03*
G01X56401Y14098D03*
G01X53601Y14098D03*
G01X63601Y15898D03*
G01X66401Y15898D03*
G01X66401Y14098D03*
G01X63601Y14098D03*
G01X73599Y15899D03*
G01X76399Y15899D03*
G01X76399Y14100D03*
G01X73599Y14100D03*
G01X3601Y5898D03*
G01X6402Y5898D03*
G01X6402Y4098D03*
G01X3601Y4098D03*
G01X13601Y5898D03*
G01X16402Y5898D03*
G01X16402Y4098D03*
G01X13601Y4098D03*
G01X23599Y5899D03*
G01X26399Y5899D03*
G01X26399Y4100D03*
G01X23599Y4100D03*
G01X33599Y5899D03*
G01X36399Y5899D03*
G01X36399Y4100D03*
G01X33599Y4100D03*
G01X43601Y5898D03*
G01X46401Y5898D03*
G01X46401Y4098D03*
G01X43601Y4098D03*
G01X53599Y5899D03*
G01X56399Y5899D03*
G01X56399Y4100D03*
G01X53599Y4100D03*
G01X63601Y5898D03*
G01X66401Y5898D03*
G01X66401Y4098D03*
G01X63601Y4098D03*
G01X73599Y5899D03*
G01X76399Y5899D03*
G01X76399Y4100D03*
G01X73599Y4100D03*
G54D14*
G01X5226Y71298D03*
G01X4377Y71298D03*
G01X15424Y71499D03*
G01X14575Y71499D03*
G01X25426Y71498D03*
G01X24577Y71498D03*
G01X35426Y71498D03*
G01X34577Y71498D03*
G01X45426Y71498D03*
G01X44577Y71498D03*
G01X55426Y71498D03*
G01X54577Y71498D03*
G01X65426Y71498D03*
G01X64577Y71498D03*
G01X75926Y71498D03*
G01X75077Y71498D03*
G01X5424Y61499D03*
G01X4575Y61499D03*
G01X15424Y61499D03*
G01X14575Y61499D03*
G01X25426Y61498D03*
G01X24577Y61498D03*
G01X35426Y61498D03*
G01X34577Y61498D03*
G01X45426Y61498D03*
G01X44577Y61498D03*
G01X55926Y61498D03*
G01X55077Y61498D03*
G01X65426Y61498D03*
G01X64577Y61498D03*
G01X75426Y61498D03*
G01X74577Y61498D03*
G01X5426Y51498D03*
G01X4577Y51498D03*
G01X15426Y51498D03*
G01X14577Y51498D03*
G01X25426Y51498D03*
G01X24577Y51498D03*
G01X35426Y51498D03*
G01X34577Y51498D03*
G01X45426Y51498D03*
G01X44577Y51498D03*
G01X55424Y51499D03*
G01X54575Y51499D03*
G01X65426Y51498D03*
G01X64577Y51498D03*
G01X75426Y51498D03*
G01X74577Y51498D03*
G01X5426Y41498D03*
G01X4577Y41498D03*
G01X15426Y41498D03*
G01X14577Y41498D03*
G01X25426Y41498D03*
G01X24577Y41498D03*
G01X35426Y41498D03*
G01X34577Y41498D03*
G01X45426Y41498D03*
G01X44577Y41498D03*
G01X55426Y41498D03*
G01X54577Y41498D03*
G01X65426Y41498D03*
G01X64577Y41498D03*
G01X75426Y41498D03*
G01X74577Y41498D03*
G01X5426Y31498D03*
G01X4577Y31498D03*
G01X15426Y31498D03*
G01X14577Y31498D03*
G01X25426Y31498D03*
G01X24577Y31498D03*
G01X35426Y31498D03*
G01X34577Y31498D03*
G01X45426Y31498D03*
G01X44577Y31498D03*
G01X55424Y31499D03*
G01X54575Y31499D03*
G01X65426Y31498D03*
G01X64577Y31498D03*
G01X75426Y31498D03*
G01X74577Y31498D03*
G01X5426Y21498D03*
G01X4577Y21498D03*
G01X15426Y21498D03*
G01X14577Y21498D03*
G01X25426Y21498D03*
G01X24577Y21498D03*
G01X35426Y21498D03*
G01X34577Y21498D03*
G01X45426Y21498D03*
G01X44577Y21498D03*
G01X55426Y21498D03*
G01X54577Y21498D03*
G01X65426Y21498D03*
G01X64577Y21498D03*
G01X75426Y21498D03*
G01X74577Y21498D03*
G01X5426Y11498D03*
G01X4577Y11498D03*
G01X15426Y11498D03*
G01X14577Y11498D03*
G01X25426Y11498D03*
G01X24577Y11498D03*
G01X35426Y11498D03*
G01X34577Y11498D03*
G01X45426Y11498D03*
G01X44577Y11498D03*
G01X55426Y11498D03*
G01X54577Y11498D03*
G01X65426Y11498D03*
G01X64577Y11498D03*
G01X75426Y11498D03*
G01X74577Y11498D03*
G01X5426Y1498D03*
G01X4577Y1498D03*
G01X15426Y1498D03*
G01X14577Y1498D03*
G01X25426Y1498D03*
G01X24577Y1498D03*
G01X35426Y1498D03*
G01X34577Y1498D03*
G01X45426Y1498D03*
G01X44577Y1498D03*
G01X55426Y1498D03*
G01X54577Y1498D03*
G01X65426Y1498D03*
G01X64577Y1498D03*
G01X75426Y1498D03*
G01X74577Y1498D03*
G54D12*
G01X75501Y78498D03*
G01X1499Y4999D03*
G01X8999Y3999D03*
G01X1499Y7499D03*
G01X79001Y72498D03*
G01X71999Y78499D03*
M00*
M02*
