G04 ---------------------------- Layer name :BOTTOM LAYER*
G04 EasyEDA v5.8.22, Sat, 19 Jan 2019 18:17:00 GMT*
G04 b8eca77e87294b629a6419249ffa979f*
G04 Gerber Generator version 0.2*
G04 Scale: 100 percent, Rotated: No, Reflected: No *
G04 Dimensions in millimeters *
G04 leading zeros omitted , absolute positions ,3 integer and 3 decimal *
%FSLAX33Y33*%
%MOMM*%
G90*
G71D02*

%ADD10C,0.254000*%
%ADD12C,0.619760*%
%ADD15C,0.203200*%
%ADD16R,2.999994X1.524000*%

%LPD*%
G54D10*
G01X8999Y3999D02*
G01X8999Y28999D01*
G01X9999Y29999D01*
G01X1501Y5001D02*
G01X5001Y5001D01*
G01X5001Y34998D01*
G01X9999Y34998D01*
G01X1499Y7999D02*
G01X1499Y7499D01*
G01X1501Y37500D01*
G01X4000Y39999D01*
G01X9999Y39999D01*
G01X79001Y72498D02*
G01X79001Y32501D01*
G01X76499Y29999D01*
G01X69999Y29999D01*
G01X69999Y34999D02*
G01X74999Y34999D01*
G01X75499Y35499D01*
G01X75499Y78496D01*
G01X75501Y78498D01*
G01X71999Y78499D02*
G01X71999Y41999D01*
G01X69999Y39999D01*

%LPD*%
G36*
G01X64593Y34491D02*
G01X64528Y34486D01*
G01X64476Y34489D01*
G01X64426Y34498D01*
G01X64377Y34513D01*
G01X64330Y34532D01*
G01X64284Y34556D01*
G01X64240Y34583D01*
G01X64197Y34613D01*
G01X64157Y34646D01*
G01X64152Y34646D01*
G01X64137Y34511D01*
G01X63999Y34511D01*
G01X63999Y35192D01*
G01X64001Y35256D01*
G01X64009Y35316D01*
G01X64020Y35373D01*
G01X64037Y35424D01*
G01X64059Y35471D01*
G01X64086Y35513D01*
G01X64119Y35549D01*
G01X64157Y35580D01*
G01X64202Y35604D01*
G01X64252Y35621D01*
G01X64309Y35633D01*
G01X64373Y35636D01*
G01X64437Y35633D01*
G01X64500Y35622D01*
G01X64559Y35607D01*
G01X64616Y35587D01*
G01X64668Y35565D01*
G01X64717Y35541D01*
G01X64760Y35516D01*
G01X64799Y35491D01*
G01X64731Y35377D01*
G01X64663Y35421D01*
G01X64584Y35460D01*
G01X64494Y35488D01*
G01X64398Y35499D01*
G01X64334Y35492D01*
G01X64282Y35474D01*
G01X64241Y35445D01*
G01X64210Y35407D01*
G01X64188Y35362D01*
G01X64174Y35313D01*
G01X64166Y35259D01*
G01X64164Y35204D01*
G01X64250Y35194D01*
G01X64330Y35181D01*
G01X64403Y35167D01*
G01X64470Y35152D01*
G01X64532Y35134D01*
G01X64588Y35114D01*
G01X64637Y35093D01*
G01X64682Y35069D01*
G01X64721Y35043D01*
G01X64754Y35015D01*
G01X64782Y34984D01*
G01X64805Y34951D01*
G01X64823Y34916D01*
G01X64836Y34878D01*
G01X64843Y34837D01*
G01X64845Y34793D01*
G01X64839Y34723D01*
G01X64821Y34661D01*
G01X64792Y34609D01*
G01X64754Y34565D01*
G01X64708Y34531D01*
G01X64653Y34506D01*
G01X64593Y34491D01*
G37*

%LPC*%
G36*
G01X64401Y34627D02*
G01X64482Y34618D01*
G01X64561Y34628D01*
G01X64625Y34661D01*
G01X64669Y34718D01*
G01X64685Y34803D01*
G01X64682Y34839D01*
G01X64673Y34873D01*
G01X64658Y34905D01*
G01X64636Y34935D01*
G01X64607Y34962D01*
G01X64570Y34987D01*
G01X64526Y35010D01*
G01X64472Y35031D01*
G01X64410Y35049D01*
G01X64338Y35066D01*
G01X64256Y35080D01*
G01X64164Y35093D01*
G01X64164Y34770D01*
G01X64245Y34705D01*
G01X64323Y34657D01*
G01X64401Y34627D01*
G37*

%LPD*%
G36*
G01X65222Y34492D02*
G01X65142Y34486D01*
G01X65095Y34489D01*
G01X65044Y34498D01*
G01X64995Y34511D01*
G01X64947Y34526D01*
G01X64980Y34648D01*
G01X65009Y34638D01*
G01X65042Y34629D01*
G01X65076Y34623D01*
G01X65109Y34620D01*
G01X65191Y34635D01*
G01X65243Y34678D01*
G01X65271Y34746D01*
G01X65280Y34836D01*
G01X65280Y35471D01*
G01X64977Y35471D01*
G01X64977Y35608D01*
G01X65280Y35608D01*
G01X65280Y35918D01*
G01X65422Y35918D01*
G01X65440Y35608D01*
G01X65612Y35598D01*
G01X65612Y35471D01*
G01X65445Y35471D01*
G01X65445Y34841D01*
G01X65441Y34764D01*
G01X65430Y34695D01*
G01X65410Y34635D01*
G01X65380Y34583D01*
G01X65339Y34542D01*
G01X65287Y34511D01*
G01X65222Y34492D01*
G37*

%LPC*%

%LPD*%
G36*
G01X66399Y34491D02*
G01X66334Y34486D01*
G01X66282Y34489D01*
G01X66232Y34498D01*
G01X66183Y34513D01*
G01X66136Y34532D01*
G01X66090Y34556D01*
G01X66046Y34583D01*
G01X66003Y34613D01*
G01X65963Y34646D01*
G01X65958Y34646D01*
G01X65942Y34511D01*
G01X65808Y34511D01*
G01X65808Y35192D01*
G01X65810Y35256D01*
G01X65817Y35316D01*
G01X65828Y35373D01*
G01X65845Y35424D01*
G01X65866Y35471D01*
G01X65893Y35513D01*
G01X65926Y35549D01*
G01X65964Y35580D01*
G01X66008Y35604D01*
G01X66059Y35621D01*
G01X66115Y35633D01*
G01X66179Y35636D01*
G01X66244Y35633D01*
G01X66307Y35622D01*
G01X66366Y35607D01*
G01X66423Y35587D01*
G01X66475Y35565D01*
G01X66523Y35541D01*
G01X66567Y35516D01*
G01X66605Y35491D01*
G01X66539Y35377D01*
G01X66470Y35421D01*
G01X66390Y35460D01*
G01X66301Y35488D01*
G01X66204Y35499D01*
G01X66140Y35492D01*
G01X66088Y35474D01*
G01X66048Y35445D01*
G01X66017Y35407D01*
G01X65995Y35362D01*
G01X65981Y35313D01*
G01X65973Y35259D01*
G01X65970Y35204D01*
G01X66056Y35194D01*
G01X66136Y35181D01*
G01X66209Y35167D01*
G01X66276Y35152D01*
G01X66338Y35134D01*
G01X66394Y35114D01*
G01X66444Y35093D01*
G01X66489Y35069D01*
G01X66528Y35043D01*
G01X66562Y35015D01*
G01X66590Y34984D01*
G01X66614Y34951D01*
G01X66631Y34916D01*
G01X66644Y34878D01*
G01X66651Y34837D01*
G01X66654Y34793D01*
G01X66647Y34723D01*
G01X66629Y34661D01*
G01X66600Y34609D01*
G01X66561Y34565D01*
G01X66514Y34531D01*
G01X66460Y34506D01*
G01X66399Y34491D01*
G37*

%LPC*%
G36*
G01X66207Y34627D02*
G01X66288Y34618D01*
G01X66367Y34628D01*
G01X66431Y34661D01*
G01X66475Y34718D01*
G01X66491Y34803D01*
G01X66488Y34839D01*
G01X66479Y34873D01*
G01X66464Y34905D01*
G01X66442Y34935D01*
G01X66413Y34962D01*
G01X66376Y34987D01*
G01X66332Y35010D01*
G01X66278Y35031D01*
G01X66216Y35049D01*
G01X66144Y35066D01*
G01X66062Y35080D01*
G01X65970Y35093D01*
G01X65970Y34770D01*
G01X66051Y34705D01*
G01X66129Y34657D01*
G01X66207Y34627D01*
G37*

%LPD*%
G36*
G01X67954Y34511D02*
G01X67583Y34511D01*
G01X67517Y34513D01*
G01X67454Y34519D01*
G01X67394Y34530D01*
G01X67338Y34544D01*
G01X67285Y34562D01*
G01X67235Y34585D01*
G01X67189Y34611D01*
G01X67146Y34640D01*
G01X67106Y34674D01*
G01X67070Y34710D01*
G01X67037Y34751D01*
G01X67007Y34794D01*
G01X66981Y34842D01*
G01X66958Y34892D01*
G01X66939Y34946D01*
G01X66923Y35003D01*
G01X66911Y35063D01*
G01X66902Y35126D01*
G01X66896Y35192D01*
G01X66895Y35260D01*
G01X66896Y35329D01*
G01X66902Y35394D01*
G01X66911Y35457D01*
G01X66923Y35517D01*
G01X66939Y35573D01*
G01X66958Y35626D01*
G01X66981Y35676D01*
G01X67007Y35723D01*
G01X67037Y35765D01*
G01X67070Y35805D01*
G01X67107Y35841D01*
G01X67147Y35874D01*
G01X67190Y35903D01*
G01X67237Y35928D01*
G01X67287Y35950D01*
G01X67340Y35967D01*
G01X67397Y35981D01*
G01X67458Y35991D01*
G01X67521Y35997D01*
G01X67588Y35999D01*
G01X67954Y35999D01*
G01X67954Y34511D01*
G37*

%LPC*%
G36*
G01X67538Y34651D02*
G01X67604Y34648D01*
G01X67787Y34648D01*
G01X67787Y35860D01*
G01X67604Y35860D01*
G01X67538Y35857D01*
G01X67476Y35850D01*
G01X67419Y35837D01*
G01X67366Y35820D01*
G01X67318Y35797D01*
G01X67274Y35770D01*
G01X67235Y35739D01*
G01X67199Y35703D01*
G01X67168Y35662D01*
G01X67141Y35617D01*
G01X67119Y35568D01*
G01X67100Y35515D01*
G01X67086Y35457D01*
G01X67076Y35395D01*
G01X67070Y35330D01*
G01X67068Y35260D01*
G01X67070Y35191D01*
G01X67076Y35125D01*
G01X67086Y35063D01*
G01X67100Y35005D01*
G01X67119Y34950D01*
G01X67141Y34900D01*
G01X67168Y34854D01*
G01X67199Y34812D01*
G01X67235Y34775D01*
G01X67274Y34742D01*
G01X67318Y34714D01*
G01X67366Y34690D01*
G01X67419Y34672D01*
G01X67476Y34659D01*
G01X67538Y34651D01*
G37*

%LPD*%
G54D15*
G01X12228Y43999D02*
G01X12413Y43907D01*
G01X12598Y43722D01*
G01X12690Y43538D01*
G01X12783Y43261D01*
G01X12783Y42799D01*
G01X12690Y42522D01*
G01X12598Y42337D01*
G01X12413Y42152D01*
G01X12228Y42060D01*
G01X11859Y42060D01*
G01X11674Y42152D01*
G01X11490Y42337D01*
G01X11397Y42522D01*
G01X11305Y42799D01*
G01X11305Y43261D01*
G01X11397Y43538D01*
G01X11490Y43722D01*
G01X11674Y43907D01*
G01X11859Y43999D01*
G01X12228Y43999D01*
G01X10695Y43999D02*
G01X10695Y42614D01*
G01X10603Y42337D01*
G01X10418Y42152D01*
G01X10141Y42060D01*
G01X9956Y42060D01*
G01X9679Y42152D01*
G01X9495Y42337D01*
G01X9402Y42614D01*
G01X9402Y43999D01*
G01X8146Y43999D02*
G01X8146Y42060D01*
G01X8793Y43999D02*
G01X7499Y43999D01*
G01X71402Y43499D02*
G01X71402Y41560D01*
G01X70793Y43499D02*
G01X70793Y41560D01*
G01X70793Y43499D02*
G01X69499Y41560D01*
G01X69499Y43499D02*
G01X69499Y41560D01*
G01X75760Y9131D02*
G01X76040Y9037D01*
G01X76131Y8854D01*
G01X76131Y8669D01*
G01X76040Y8484D01*
G01X75854Y8392D01*
G01X75484Y8298D01*
G01X75207Y8207D01*
G01X75024Y8021D01*
G01X74930Y7838D01*
G01X74930Y7559D01*
G01X75024Y7376D01*
G01X75115Y7282D01*
G01X75392Y7191D01*
G01X75760Y7191D01*
G01X76040Y7282D01*
G01X76131Y7376D01*
G01X76223Y7559D01*
G01X76223Y7838D01*
G01X76131Y8021D01*
G01X75946Y8207D01*
G01X75669Y8298D01*
G01X75301Y8392D01*
G01X75115Y8484D01*
G01X75024Y8669D01*
G01X75024Y8854D01*
G01X75115Y9037D01*
G01X75392Y9131D01*
G01X75760Y9131D01*
G01X74320Y8484D02*
G01X73304Y7191D01*
G01X73304Y8484D02*
G01X74320Y7191D01*
G01X72232Y9131D02*
G01X72509Y9037D01*
G01X72603Y8854D01*
G01X72603Y8669D01*
G01X72509Y8484D01*
G01X72326Y8392D01*
G01X71956Y8298D01*
G01X71679Y8207D01*
G01X71493Y8021D01*
G01X71402Y7838D01*
G01X71402Y7559D01*
G01X71493Y7376D01*
G01X71587Y7282D01*
G01X71864Y7191D01*
G01X72232Y7191D01*
G01X72509Y7282D01*
G01X72603Y7376D01*
G01X72695Y7559D01*
G01X72695Y7838D01*
G01X72603Y8021D01*
G01X72418Y8207D01*
G01X72141Y8298D01*
G01X71773Y8392D01*
G01X71587Y8484D01*
G01X71493Y8669D01*
G01X71493Y8854D01*
G01X71587Y9037D01*
G01X71864Y9131D01*
G01X72232Y9131D01*
G01X69370Y9131D02*
G01X68908Y7191D01*
G01X68445Y9131D02*
G01X68908Y7191D01*
G01X68445Y9131D02*
G01X67986Y7191D01*
G01X67523Y9131D02*
G01X67986Y7191D01*
G01X65621Y8854D02*
G01X65804Y9037D01*
G01X66083Y9131D01*
G01X66451Y9131D01*
G01X66728Y9037D01*
G01X66914Y8854D01*
G01X66914Y8669D01*
G01X66820Y8484D01*
G01X66728Y8392D01*
G01X66543Y8298D01*
G01X65989Y8115D01*
G01X65804Y8021D01*
G01X65712Y7930D01*
G01X65621Y7744D01*
G01X65621Y7468D01*
G01X65804Y7282D01*
G01X66083Y7191D01*
G01X66451Y7191D01*
G01X66728Y7282D01*
G01X66914Y7468D01*
G01X64917Y8669D02*
G01X64917Y8760D01*
G01X64826Y8946D01*
G01X64734Y9037D01*
G01X64549Y9131D01*
G01X64178Y9131D01*
G01X63995Y9037D01*
G01X63901Y8946D01*
G01X63810Y8760D01*
G01X63810Y8575D01*
G01X63901Y8392D01*
G01X64087Y8115D01*
G01X65011Y7191D01*
G01X63718Y7191D01*
G01X62646Y9131D02*
G01X62923Y9037D01*
G01X63015Y8854D01*
G01X63015Y8669D01*
G01X62923Y8484D01*
G01X62738Y8392D01*
G01X62370Y8298D01*
G01X62093Y8207D01*
G01X61907Y8021D01*
G01X61816Y7838D01*
G01X61816Y7559D01*
G01X61907Y7376D01*
G01X61999Y7282D01*
G01X62276Y7191D01*
G01X62646Y7191D01*
G01X62923Y7282D01*
G01X63015Y7376D01*
G01X63109Y7559D01*
G01X63109Y7838D01*
G01X63015Y8021D01*
G01X62832Y8207D01*
G01X62552Y8298D01*
G01X62184Y8392D01*
G01X61999Y8484D01*
G01X61907Y8669D01*
G01X61907Y8854D01*
G01X61999Y9037D01*
G01X62276Y9131D01*
G01X62646Y9131D01*
G01X61206Y8760D02*
G01X61021Y8854D01*
G01X60744Y9131D01*
G01X60744Y7191D01*
G01X60040Y8669D02*
G01X60040Y8760D01*
G01X59949Y8946D01*
G01X59858Y9037D01*
G01X59672Y9131D01*
G01X59301Y9131D01*
G01X59118Y9037D01*
G01X59024Y8946D01*
G01X58933Y8760D01*
G01X58933Y8575D01*
G01X59024Y8392D01*
G01X59210Y8115D01*
G01X60134Y7191D01*
G01X58842Y7191D01*
G01X58232Y9131D02*
G01X58232Y7191D01*
G01X58232Y9131D02*
G01X57399Y9131D01*
G01X57122Y9037D01*
G01X57031Y8946D01*
G01X56939Y8760D01*
G01X56939Y8575D01*
G01X57031Y8392D01*
G01X57122Y8298D01*
G01X57399Y8207D01*
G01X58232Y8207D02*
G01X57399Y8207D01*
G01X57122Y8115D01*
G01X57031Y8021D01*
G01X56939Y7838D01*
G01X56939Y7559D01*
G01X57031Y7376D01*
G01X57122Y7282D01*
G01X57399Y7191D01*
G01X58232Y7191D01*
G01X54907Y9131D02*
G01X54907Y7191D01*
G01X54907Y9131D02*
G01X54168Y7191D01*
G01X53429Y9131D02*
G01X54168Y7191D01*
G01X53429Y9131D02*
G01X53429Y7191D01*
G01X51709Y8484D02*
G01X51709Y7191D01*
G01X51709Y8207D02*
G01X51895Y8392D01*
G01X52080Y8484D01*
G01X52357Y8484D01*
G01X52542Y8392D01*
G01X52725Y8207D01*
G01X52819Y7930D01*
G01X52819Y7744D01*
G01X52725Y7468D01*
G01X52542Y7282D01*
G01X52357Y7191D01*
G01X52080Y7191D01*
G01X51895Y7282D01*
G01X51709Y7468D01*
G01X50823Y9131D02*
G01X50823Y7559D01*
G01X50731Y7282D01*
G01X50546Y7191D01*
G01X50360Y7191D01*
G01X51100Y8484D02*
G01X50454Y8484D01*
G01X49751Y8484D02*
G01X49751Y7191D01*
G01X49751Y7930D02*
G01X49659Y8207D01*
G01X49474Y8392D01*
G01X49291Y8484D01*
G01X49014Y8484D01*
G01X48405Y9131D02*
G01X48311Y9037D01*
G01X48219Y9131D01*
G01X48311Y9223D01*
G01X48405Y9131D01*
G01X48311Y8484D02*
G01X48311Y7191D01*
G01X47610Y8484D02*
G01X46594Y7191D01*
G01X46594Y8484D02*
G01X47610Y7191D01*
G01X43914Y9500D02*
G01X44099Y9314D01*
G01X44285Y9037D01*
G01X44468Y8669D01*
G01X44562Y8207D01*
G01X44562Y7838D01*
G01X44468Y7376D01*
G01X44285Y7005D01*
G01X44099Y6728D01*
G01X43914Y6543D01*
G01X43304Y9131D02*
G01X42565Y7191D01*
G01X41826Y9131D02*
G01X42565Y7191D01*
G01X41216Y8760D02*
G01X41034Y8854D01*
G01X40757Y9131D01*
G01X40757Y7191D01*
G01X40147Y9500D02*
G01X39962Y9314D01*
G01X39776Y9037D01*
G01X39591Y8669D01*
G01X39499Y8207D01*
G01X39499Y7838D01*
G01X39591Y7376D01*
G01X39776Y7005D01*
G01X39962Y6728D01*
G01X40147Y6543D01*
G01X75115Y6083D02*
G01X75115Y4143D01*
G01X75115Y5159D02*
G01X75301Y5344D01*
G01X75484Y5436D01*
G01X75760Y5436D01*
G01X75946Y5344D01*
G01X76131Y5159D01*
G01X76223Y4882D01*
G01X76223Y4696D01*
G01X76131Y4420D01*
G01X75946Y4234D01*
G01X75760Y4143D01*
G01X75484Y4143D01*
G01X75301Y4234D01*
G01X75115Y4420D01*
G01X74414Y5436D02*
G01X73858Y4143D01*
G01X73304Y5436D02*
G01X73858Y4143D01*
G01X74043Y3774D01*
G01X74229Y3589D01*
G01X74414Y3495D01*
G01X74506Y3495D01*
G01X72695Y6083D02*
G01X72695Y4143D01*
G01X70978Y5436D02*
G01X70978Y4143D01*
G01X70978Y5159D02*
G01X71163Y5344D01*
G01X71346Y5436D01*
G01X71623Y5436D01*
G01X71808Y5344D01*
G01X71994Y5159D01*
G01X72085Y4882D01*
G01X72085Y4696D01*
G01X71994Y4420D01*
G01X71808Y4234D01*
G01X71623Y4143D01*
G01X71346Y4143D01*
G01X71163Y4234D01*
G01X70978Y4420D01*
G01X70368Y5436D02*
G01X70368Y4143D01*
G01X70368Y5067D02*
G01X70091Y5344D01*
G01X69906Y5436D01*
G01X69629Y5436D01*
G01X69443Y5344D01*
G01X69352Y5067D01*
G01X69352Y4143D01*
G01X68742Y6083D02*
G01X68742Y4143D01*
G01X67818Y5436D02*
G01X68742Y4511D01*
G01X68372Y4882D02*
G01X67726Y4143D01*
G01X67117Y6083D02*
G01X67117Y4143D01*
G01X67117Y5159D02*
G01X66931Y5344D01*
G01X66746Y5436D01*
G01X66469Y5436D01*
G01X66286Y5344D01*
G01X66101Y5159D01*
G01X66007Y4882D01*
G01X66007Y4696D01*
G01X66101Y4420D01*
G01X66286Y4234D01*
G01X66469Y4143D01*
G01X66746Y4143D01*
G01X66931Y4234D01*
G01X67117Y4420D01*
G01X65397Y5436D02*
G01X65397Y4511D01*
G01X65306Y4234D01*
G01X65120Y4143D01*
G01X64844Y4143D01*
G01X64661Y4234D01*
G01X64381Y4511D01*
G01X64381Y5436D02*
G01X64381Y4143D01*
G01X62664Y5159D02*
G01X62850Y5344D01*
G01X63035Y5436D01*
G01X63312Y5436D01*
G01X63495Y5344D01*
G01X63680Y5159D01*
G01X63772Y4882D01*
G01X63772Y4696D01*
G01X63680Y4420D01*
G01X63495Y4234D01*
G01X63312Y4143D01*
G01X63035Y4143D01*
G01X62850Y4234D01*
G01X62664Y4420D01*
G01X62055Y6083D02*
G01X62055Y4143D01*
G01X61130Y5436D02*
G01X62055Y4511D01*
G01X61686Y4882D02*
G01X61039Y4143D01*
G01X60429Y6083D02*
G01X60429Y4143D01*
G01X59819Y4882D02*
G01X58712Y4882D01*
G01X58712Y5067D01*
G01X58803Y5250D01*
G01X58895Y5344D01*
G01X59080Y5436D01*
G01X59357Y5436D01*
G01X59543Y5344D01*
G01X59728Y5159D01*
G01X59819Y4882D01*
G01X59819Y4696D01*
G01X59728Y4420D01*
G01X59543Y4234D01*
G01X59357Y4143D01*
G01X59080Y4143D01*
G01X58895Y4234D01*
G01X58712Y4420D01*
G01X58008Y5436D02*
G01X57455Y4143D01*
G01X56901Y5436D02*
G01X57455Y4143D01*
G01X57640Y3774D01*
G01X57826Y3589D01*
G01X58008Y3495D01*
G01X58102Y3495D01*
G01X56200Y4605D02*
G01X56291Y4511D01*
G01X56200Y4420D01*
G01X56106Y4511D01*
G01X56200Y4605D01*
G01X54389Y5159D02*
G01X54574Y5344D01*
G01X54757Y5436D01*
G01X55034Y5436D01*
G01X55219Y5344D01*
G01X55405Y5159D01*
G01X55496Y4882D01*
G01X55496Y4696D01*
G01X55405Y4420D01*
G01X55219Y4234D01*
G01X55034Y4143D01*
G01X54757Y4143D01*
G01X54574Y4234D01*
G01X54389Y4420D01*
G01X53317Y5436D02*
G01X53502Y5344D01*
G01X53688Y5159D01*
G01X53779Y4882D01*
G01X53779Y4696D01*
G01X53688Y4420D01*
G01X53502Y4234D01*
G01X53317Y4143D01*
G01X53040Y4143D01*
G01X52855Y4234D01*
G01X52672Y4420D01*
G01X52578Y4696D01*
G01X52578Y4882D01*
G01X52672Y5159D01*
G01X52855Y5344D01*
G01X53040Y5436D01*
G01X53317Y5436D01*
G01X51968Y5436D02*
G01X51968Y4143D01*
G01X51968Y5067D02*
G01X51691Y5344D01*
G01X51506Y5436D01*
G01X51229Y5436D01*
G01X51046Y5344D01*
G01X50952Y5067D01*
G01X50952Y4143D01*
G01X50952Y5067D02*
G01X50675Y5344D01*
G01X50490Y5436D01*
G01X50213Y5436D01*
G01X50030Y5344D01*
G01X49936Y5067D01*
G01X49936Y4143D01*

%LPD*%
G36*
G01X65006Y39462D02*
G01X64951Y39460D01*
G01X64881Y39463D01*
G01X64816Y39474D01*
G01X64754Y39491D01*
G01X64696Y39515D01*
G01X64642Y39546D01*
G01X64591Y39582D01*
G01X64544Y39625D01*
G01X64499Y39673D01*
G01X64591Y39777D01*
G01X64628Y39739D01*
G01X64667Y39705D01*
G01X64708Y39676D01*
G01X64750Y39651D01*
G01X64795Y39633D01*
G01X64842Y39619D01*
G01X64891Y39610D01*
G01X64944Y39607D01*
G01X64998Y39610D01*
G01X65048Y39618D01*
G01X65096Y39632D01*
G01X65141Y39651D01*
G01X65184Y39675D01*
G01X65223Y39704D01*
G01X65258Y39738D01*
G01X65291Y39776D01*
G01X65320Y39819D01*
G01X65346Y39866D01*
G01X65367Y39918D01*
G01X65386Y39973D01*
G01X65400Y40032D01*
G01X65411Y40095D01*
G01X65417Y40162D01*
G01X65419Y40232D01*
G01X65417Y40303D01*
G01X65410Y40369D01*
G01X65399Y40432D01*
G01X65385Y40491D01*
G01X65366Y40546D01*
G01X65343Y40597D01*
G01X65317Y40644D01*
G01X65287Y40686D01*
G01X65254Y40724D01*
G01X65218Y40757D01*
G01X65177Y40786D01*
G01X65135Y40809D01*
G01X65089Y40828D01*
G01X65041Y40841D01*
G01X64990Y40849D01*
G01X64936Y40852D01*
G01X64844Y40842D01*
G01X64762Y40812D01*
G01X64691Y40768D01*
G01X64629Y40710D01*
G01X64535Y40819D01*
G01X64570Y40854D01*
G01X64609Y40887D01*
G01X64653Y40917D01*
G01X64701Y40944D01*
G01X64755Y40967D01*
G01X64812Y40984D01*
G01X64873Y40996D01*
G01X64939Y40999D01*
G01X64995Y40997D01*
G01X65048Y40991D01*
G01X65101Y40980D01*
G01X65151Y40965D01*
G01X65199Y40946D01*
G01X65245Y40923D01*
G01X65290Y40897D01*
G01X65331Y40866D01*
G01X65370Y40832D01*
G01X65406Y40793D01*
G01X65440Y40752D01*
G01X65470Y40707D01*
G01X65497Y40658D01*
G01X65522Y40606D01*
G01X65543Y40552D01*
G01X65560Y40493D01*
G01X65574Y40432D01*
G01X65583Y40367D01*
G01X65589Y40300D01*
G01X65591Y40230D01*
G01X65589Y40159D01*
G01X65584Y40091D01*
G01X65574Y40026D01*
G01X65560Y39964D01*
G01X65543Y39906D01*
G01X65523Y39851D01*
G01X65499Y39799D01*
G01X65473Y39751D01*
G01X65443Y39705D01*
G01X65410Y39664D01*
G01X65374Y39626D01*
G01X65336Y39592D01*
G01X65295Y39562D01*
G01X65252Y39535D01*
G01X65207Y39513D01*
G01X65160Y39494D01*
G01X65110Y39479D01*
G01X65059Y39469D01*
G01X65006Y39462D01*
G37*

%LPC*%

%LPD*%
G36*
G01X66233Y39462D02*
G01X66178Y39460D01*
G01X66108Y39463D01*
G01X66043Y39474D01*
G01X65981Y39491D01*
G01X65923Y39515D01*
G01X65869Y39546D01*
G01X65818Y39582D01*
G01X65771Y39625D01*
G01X65726Y39673D01*
G01X65820Y39777D01*
G01X65857Y39739D01*
G01X65895Y39705D01*
G01X65935Y39676D01*
G01X65978Y39651D01*
G01X66022Y39633D01*
G01X66068Y39619D01*
G01X66118Y39610D01*
G01X66171Y39607D01*
G01X66224Y39610D01*
G01X66275Y39618D01*
G01X66323Y39632D01*
G01X66368Y39651D01*
G01X66410Y39675D01*
G01X66449Y39704D01*
G01X66485Y39738D01*
G01X66518Y39776D01*
G01X66547Y39819D01*
G01X66572Y39866D01*
G01X66594Y39918D01*
G01X66613Y39973D01*
G01X66627Y40032D01*
G01X66637Y40095D01*
G01X66644Y40162D01*
G01X66646Y40232D01*
G01X66644Y40303D01*
G01X66637Y40369D01*
G01X66626Y40432D01*
G01X66612Y40491D01*
G01X66593Y40546D01*
G01X66570Y40597D01*
G01X66544Y40644D01*
G01X66514Y40686D01*
G01X66481Y40724D01*
G01X66445Y40757D01*
G01X66405Y40786D01*
G01X66363Y40809D01*
G01X66317Y40828D01*
G01X66270Y40841D01*
G01X66219Y40849D01*
G01X66165Y40852D01*
G01X66072Y40842D01*
G01X65990Y40812D01*
G01X65918Y40768D01*
G01X65856Y40710D01*
G01X65762Y40819D01*
G01X65797Y40854D01*
G01X65836Y40887D01*
G01X65880Y40917D01*
G01X65928Y40944D01*
G01X65982Y40967D01*
G01X66038Y40984D01*
G01X66100Y40996D01*
G01X66165Y40999D01*
G01X66221Y40997D01*
G01X66275Y40991D01*
G01X66328Y40980D01*
G01X66378Y40965D01*
G01X66426Y40946D01*
G01X66472Y40923D01*
G01X66517Y40897D01*
G01X66558Y40866D01*
G01X66597Y40832D01*
G01X66633Y40793D01*
G01X66666Y40752D01*
G01X66697Y40707D01*
G01X66724Y40658D01*
G01X66749Y40606D01*
G01X66769Y40552D01*
G01X66787Y40493D01*
G01X66800Y40432D01*
G01X66810Y40367D01*
G01X66816Y40300D01*
G01X66818Y40230D01*
G01X66816Y40159D01*
G01X66811Y40091D01*
G01X66800Y40026D01*
G01X66787Y39964D01*
G01X66770Y39906D01*
G01X66750Y39851D01*
G01X66726Y39799D01*
G01X66699Y39751D01*
G01X66669Y39705D01*
G01X66636Y39664D01*
G01X66601Y39626D01*
G01X66563Y39592D01*
G01X66522Y39562D01*
G01X66479Y39535D01*
G01X66434Y39513D01*
G01X66386Y39494D01*
G01X66337Y39479D01*
G01X66286Y39469D01*
G01X66233Y39462D01*
G37*

%LPC*%

%LPD*%
G36*
G01X67588Y39485D02*
G01X67395Y39485D01*
G01X66917Y40974D01*
G01X67090Y40974D01*
G01X67334Y40151D01*
G01X67354Y40087D01*
G01X67373Y40025D01*
G01X67391Y39965D01*
G01X67425Y39847D01*
G01X67444Y39787D01*
G01X67463Y39725D01*
G01X67484Y39661D01*
G01X67491Y39661D01*
G01X67512Y39725D01*
G01X67531Y39787D01*
G01X67550Y39847D01*
G01X67584Y39965D01*
G01X67602Y40025D01*
G01X67619Y40087D01*
G01X67639Y40151D01*
G01X67888Y40974D01*
G01X68065Y40974D01*
G01X67588Y39485D01*
G37*

%LPC*%

%LPD*%

%LPD*%
G36*
G01X66966Y29684D02*
G01X66908Y29682D01*
G01X66835Y29685D01*
G01X66765Y29695D01*
G01X66701Y29710D01*
G01X66640Y29730D01*
G01X66585Y29755D01*
G01X66535Y29784D01*
G01X66490Y29817D01*
G01X66451Y29852D01*
G01X66451Y30469D01*
G01X66931Y30469D01*
G01X66931Y30330D01*
G01X66608Y30330D01*
G01X66608Y29923D01*
G01X66662Y29884D01*
G01X66730Y29854D01*
G01X66808Y29836D01*
G01X66890Y29829D01*
G01X66949Y29832D01*
G01X67005Y29840D01*
G01X67057Y29854D01*
G01X67105Y29873D01*
G01X67150Y29897D01*
G01X67192Y29926D01*
G01X67230Y29959D01*
G01X67264Y29998D01*
G01X67294Y30041D01*
G01X67321Y30088D01*
G01X67344Y30139D01*
G01X67362Y30195D01*
G01X67377Y30254D01*
G01X67387Y30317D01*
G01X67394Y30384D01*
G01X67396Y30454D01*
G01X67394Y30524D01*
G01X67387Y30591D01*
G01X67376Y30654D01*
G01X67360Y30713D01*
G01X67341Y30768D01*
G01X67318Y30819D01*
G01X67290Y30866D01*
G01X67259Y30908D01*
G01X67225Y30946D01*
G01X67187Y30979D01*
G01X67145Y31007D01*
G01X67100Y31031D01*
G01X67052Y31049D01*
G01X67001Y31063D01*
G01X66947Y31071D01*
G01X66890Y31074D01*
G01X66785Y31063D01*
G01X66697Y31032D01*
G01X66624Y30987D01*
G01X66563Y30932D01*
G01X66471Y31041D01*
G01X66505Y31073D01*
G01X66544Y31105D01*
G01X66588Y31136D01*
G01X66638Y31163D01*
G01X66693Y31187D01*
G01X66754Y31205D01*
G01X66822Y31217D01*
G01X66895Y31221D01*
G01X66953Y31219D01*
G01X67009Y31213D01*
G01X67064Y31202D01*
G01X67115Y31187D01*
G01X67166Y31168D01*
G01X67213Y31145D01*
G01X67259Y31119D01*
G01X67301Y31088D01*
G01X67342Y31054D01*
G01X67379Y31015D01*
G01X67413Y30974D01*
G01X67444Y30929D01*
G01X67473Y30880D01*
G01X67497Y30828D01*
G01X67518Y30773D01*
G01X67536Y30715D01*
G01X67550Y30654D01*
G01X67560Y30589D01*
G01X67567Y30522D01*
G01X67569Y30452D01*
G01X67567Y30380D01*
G01X67560Y30313D01*
G01X67551Y30248D01*
G01X67537Y30186D01*
G01X67520Y30127D01*
G01X67499Y30073D01*
G01X67475Y30021D01*
G01X67448Y29972D01*
G01X67418Y29927D01*
G01X67384Y29886D01*
G01X67348Y29848D01*
G01X67308Y29814D01*
G01X67267Y29784D01*
G01X67222Y29757D01*
G01X67175Y29734D01*
G01X67126Y29715D01*
G01X67075Y29701D01*
G01X67021Y29691D01*
G01X66966Y29684D01*
G37*

%LPC*%

%LPD*%
G36*
G01X64632Y29707D02*
G01X64262Y29707D01*
G01X64195Y29709D01*
G01X64132Y29715D01*
G01X64073Y29726D01*
G01X64016Y29740D01*
G01X63963Y29759D01*
G01X63914Y29781D01*
G01X63867Y29807D01*
G01X63824Y29836D01*
G01X63784Y29870D01*
G01X63748Y29907D01*
G01X63715Y29947D01*
G01X63685Y29991D01*
G01X63659Y30038D01*
G01X63636Y30089D01*
G01X63617Y30142D01*
G01X63601Y30199D01*
G01X63589Y30259D01*
G01X63580Y30322D01*
G01X63575Y30388D01*
G01X63573Y30457D01*
G01X63575Y30525D01*
G01X63580Y30591D01*
G01X63589Y30654D01*
G01X63602Y30713D01*
G01X63617Y30769D01*
G01X63637Y30822D01*
G01X63660Y30872D01*
G01X63685Y30919D01*
G01X63715Y30962D01*
G01X63748Y31002D01*
G01X63785Y31038D01*
G01X63825Y31070D01*
G01X63868Y31099D01*
G01X63915Y31125D01*
G01X63965Y31146D01*
G01X64019Y31164D01*
G01X64076Y31177D01*
G01X64136Y31188D01*
G01X64200Y31194D01*
G01X64267Y31196D01*
G01X64632Y31196D01*
G01X64632Y29707D01*
G37*

%LPC*%
G36*
G01X64216Y29847D02*
G01X64282Y29845D01*
G01X64465Y29845D01*
G01X64465Y31056D01*
G01X64282Y31056D01*
G01X64216Y31054D01*
G01X64155Y31046D01*
G01X64098Y31033D01*
G01X64046Y31016D01*
G01X63998Y30994D01*
G01X63954Y30967D01*
G01X63914Y30935D01*
G01X63878Y30899D01*
G01X63847Y30858D01*
G01X63821Y30814D01*
G01X63798Y30764D01*
G01X63779Y30711D01*
G01X63765Y30653D01*
G01X63754Y30592D01*
G01X63748Y30526D01*
G01X63746Y30457D01*
G01X63748Y30388D01*
G01X63754Y30322D01*
G01X63765Y30260D01*
G01X63779Y30201D01*
G01X63798Y30147D01*
G01X63821Y30096D01*
G01X63847Y30050D01*
G01X63878Y30009D01*
G01X63914Y29971D01*
G01X63954Y29938D01*
G01X63998Y29910D01*
G01X64046Y29887D01*
G01X64098Y29868D01*
G01X64155Y29855D01*
G01X64216Y29847D01*
G37*

%LPD*%
G36*
G01X65222Y29707D02*
G01X65049Y29707D01*
G01X65049Y31196D01*
G01X65209Y31196D01*
G01X65209Y30391D01*
G01X65208Y30333D01*
G01X65207Y30275D01*
G01X65204Y30216D01*
G01X65201Y30157D01*
G01X65198Y30099D01*
G01X65194Y30040D01*
G01X65190Y29983D01*
G01X65186Y29926D01*
G01X65196Y29926D01*
G01X65356Y30231D01*
G01X65920Y31196D01*
G01X66093Y31196D01*
G01X66093Y29707D01*
G01X65933Y29707D01*
G01X65933Y30523D01*
G01X65933Y30581D01*
G01X65935Y30638D01*
G01X65940Y30752D01*
G01X65943Y30808D01*
G01X65947Y30864D01*
G01X65950Y30919D01*
G01X65953Y30975D01*
G01X65943Y30975D01*
G01X65780Y30670D01*
G01X65222Y29707D01*
G37*

%LPC*%

%LPD*%

%LPD*%
G36*
G01X13119Y39090D02*
G01X13064Y39088D01*
G01X12994Y39092D01*
G01X12928Y39102D01*
G01X12867Y39119D01*
G01X12809Y39143D01*
G01X12754Y39173D01*
G01X12704Y39210D01*
G01X12656Y39253D01*
G01X12612Y39301D01*
G01X12704Y39406D01*
G01X12741Y39367D01*
G01X12780Y39333D01*
G01X12820Y39303D01*
G01X12863Y39280D01*
G01X12907Y39260D01*
G01X12955Y39247D01*
G01X13004Y39238D01*
G01X13057Y39235D01*
G01X13110Y39238D01*
G01X13161Y39247D01*
G01X13209Y39260D01*
G01X13254Y39279D01*
G01X13296Y39303D01*
G01X13336Y39332D01*
G01X13371Y39365D01*
G01X13404Y39404D01*
G01X13433Y39447D01*
G01X13458Y39494D01*
G01X13480Y39545D01*
G01X13499Y39601D01*
G01X13513Y39660D01*
G01X13523Y39723D01*
G01X13530Y39790D01*
G01X13532Y39860D01*
G01X13530Y39930D01*
G01X13523Y39997D01*
G01X13512Y40060D01*
G01X13497Y40119D01*
G01X13478Y40174D01*
G01X13456Y40225D01*
G01X13429Y40272D01*
G01X13400Y40314D01*
G01X13367Y40351D01*
G01X13330Y40385D01*
G01X13290Y40413D01*
G01X13248Y40437D01*
G01X13202Y40456D01*
G01X13154Y40469D01*
G01X13102Y40477D01*
G01X13049Y40480D01*
G01X12957Y40469D01*
G01X12875Y40440D01*
G01X12804Y40395D01*
G01X12742Y40338D01*
G01X12648Y40447D01*
G01X12682Y40482D01*
G01X12722Y40515D01*
G01X12766Y40545D01*
G01X12814Y40572D01*
G01X12867Y40595D01*
G01X12925Y40612D01*
G01X12986Y40623D01*
G01X13052Y40627D01*
G01X13107Y40625D01*
G01X13161Y40619D01*
G01X13214Y40608D01*
G01X13264Y40593D01*
G01X13312Y40574D01*
G01X13358Y40551D01*
G01X13402Y40524D01*
G01X13444Y40494D01*
G01X13483Y40460D01*
G01X13519Y40422D01*
G01X13552Y40380D01*
G01X13583Y40335D01*
G01X13610Y40286D01*
G01X13634Y40235D01*
G01X13655Y40179D01*
G01X13672Y40121D01*
G01X13686Y40059D01*
G01X13696Y39995D01*
G01X13702Y39928D01*
G01X13704Y39858D01*
G01X13702Y39787D01*
G01X13696Y39718D01*
G01X13687Y39654D01*
G01X13673Y39592D01*
G01X13656Y39534D01*
G01X13636Y39479D01*
G01X13612Y39426D01*
G01X13585Y39378D01*
G01X13555Y39333D01*
G01X13522Y39292D01*
G01X13487Y39254D01*
G01X13449Y39220D01*
G01X13408Y39190D01*
G01X13365Y39163D01*
G01X13320Y39140D01*
G01X13272Y39122D01*
G01X13223Y39107D01*
G01X13171Y39097D01*
G01X13119Y39090D01*
G37*

%LPC*%

%LPD*%
G36*
G01X14345Y39090D02*
G01X14291Y39088D01*
G01X14221Y39092D01*
G01X14155Y39102D01*
G01X14093Y39119D01*
G01X14036Y39143D01*
G01X13981Y39173D01*
G01X13931Y39210D01*
G01X13883Y39253D01*
G01X13839Y39301D01*
G01X13933Y39406D01*
G01X13970Y39367D01*
G01X14008Y39333D01*
G01X14048Y39303D01*
G01X14090Y39280D01*
G01X14135Y39260D01*
G01X14181Y39247D01*
G01X14231Y39238D01*
G01X14283Y39235D01*
G01X14337Y39238D01*
G01X14388Y39247D01*
G01X14436Y39260D01*
G01X14481Y39279D01*
G01X14523Y39303D01*
G01X14562Y39332D01*
G01X14598Y39365D01*
G01X14630Y39404D01*
G01X14659Y39447D01*
G01X14685Y39494D01*
G01X14707Y39545D01*
G01X14725Y39601D01*
G01X14740Y39660D01*
G01X14750Y39723D01*
G01X14756Y39790D01*
G01X14758Y39860D01*
G01X14756Y39930D01*
G01X14750Y39997D01*
G01X14739Y40060D01*
G01X14724Y40119D01*
G01X14706Y40174D01*
G01X14683Y40225D01*
G01X14657Y40272D01*
G01X14627Y40314D01*
G01X14594Y40351D01*
G01X14557Y40385D01*
G01X14518Y40413D01*
G01X14475Y40437D01*
G01X14430Y40456D01*
G01X14382Y40469D01*
G01X14332Y40477D01*
G01X14278Y40480D01*
G01X14185Y40469D01*
G01X14103Y40440D01*
G01X14030Y40395D01*
G01X13968Y40338D01*
G01X13875Y40447D01*
G01X13909Y40482D01*
G01X13949Y40515D01*
G01X13993Y40545D01*
G01X14041Y40572D01*
G01X14094Y40595D01*
G01X14151Y40612D01*
G01X14213Y40623D01*
G01X14278Y40627D01*
G01X14334Y40625D01*
G01X14388Y40619D01*
G01X14440Y40608D01*
G01X14491Y40593D01*
G01X14539Y40574D01*
G01X14585Y40551D01*
G01X14629Y40524D01*
G01X14671Y40494D01*
G01X14710Y40460D01*
G01X14746Y40422D01*
G01X14779Y40380D01*
G01X14810Y40335D01*
G01X14837Y40286D01*
G01X14861Y40235D01*
G01X14882Y40179D01*
G01X14899Y40121D01*
G01X14913Y40059D01*
G01X14923Y39995D01*
G01X14929Y39928D01*
G01X14931Y39858D01*
G01X14929Y39787D01*
G01X14923Y39718D01*
G01X14913Y39654D01*
G01X14900Y39592D01*
G01X14883Y39534D01*
G01X14863Y39479D01*
G01X14839Y39426D01*
G01X14812Y39378D01*
G01X14782Y39333D01*
G01X14749Y39292D01*
G01X14714Y39254D01*
G01X14676Y39220D01*
G01X14635Y39190D01*
G01X14592Y39163D01*
G01X14547Y39140D01*
G01X14499Y39122D01*
G01X14450Y39107D01*
G01X14398Y39097D01*
G01X14345Y39090D01*
G37*

%LPC*%

%LPD*%
G36*
G01X15701Y39113D02*
G01X15508Y39113D01*
G01X15030Y40602D01*
G01X15203Y40602D01*
G01X15447Y39779D01*
G01X15467Y39714D01*
G01X15485Y39653D01*
G01X15503Y39593D01*
G01X15521Y39534D01*
G01X15538Y39475D01*
G01X15556Y39415D01*
G01X15576Y39353D01*
G01X15597Y39289D01*
G01X15604Y39289D01*
G01X15625Y39353D01*
G01X15644Y39415D01*
G01X15663Y39475D01*
G01X15680Y39534D01*
G01X15697Y39593D01*
G01X15714Y39653D01*
G01X15732Y39714D01*
G01X15752Y39779D01*
G01X16000Y40602D01*
G01X16178Y40602D01*
G01X15701Y39113D01*
G37*

%LPC*%

%LPD*%

%LPD*%
G36*
G01X13524Y34481D02*
G01X13459Y34476D01*
G01X13407Y34479D01*
G01X13357Y34489D01*
G01X13308Y34503D01*
G01X13261Y34523D01*
G01X13216Y34546D01*
G01X13171Y34573D01*
G01X13129Y34603D01*
G01X13088Y34636D01*
G01X13083Y34636D01*
G01X13068Y34501D01*
G01X12931Y34501D01*
G01X12931Y35182D01*
G01X12933Y35246D01*
G01X12940Y35307D01*
G01X12951Y35363D01*
G01X12968Y35415D01*
G01X12990Y35461D01*
G01X13017Y35503D01*
G01X13050Y35540D01*
G01X13089Y35570D01*
G01X13133Y35594D01*
G01X13184Y35612D01*
G01X13241Y35623D01*
G01X13304Y35627D01*
G01X13369Y35623D01*
G01X13431Y35613D01*
G01X13490Y35598D01*
G01X13547Y35578D01*
G01X13599Y35555D01*
G01X13648Y35531D01*
G01X13692Y35506D01*
G01X13731Y35482D01*
G01X13662Y35367D01*
G01X13594Y35411D01*
G01X13515Y35450D01*
G01X13425Y35479D01*
G01X13329Y35489D01*
G01X13265Y35483D01*
G01X13213Y35464D01*
G01X13172Y35435D01*
G01X13141Y35397D01*
G01X13119Y35353D01*
G01X13104Y35303D01*
G01X13097Y35250D01*
G01X13096Y35195D01*
G01X13181Y35184D01*
G01X13260Y35172D01*
G01X13334Y35158D01*
G01X13401Y35142D01*
G01X13463Y35124D01*
G01X13518Y35105D01*
G01X13569Y35083D01*
G01X13613Y35060D01*
G01X13652Y35034D01*
G01X13686Y35005D01*
G01X13713Y34975D01*
G01X13736Y34942D01*
G01X13754Y34906D01*
G01X13766Y34868D01*
G01X13774Y34827D01*
G01X13776Y34783D01*
G01X13770Y34713D01*
G01X13752Y34652D01*
G01X13724Y34599D01*
G01X13685Y34555D01*
G01X13639Y34521D01*
G01X13584Y34496D01*
G01X13524Y34481D01*
G37*

%LPC*%
G36*
G01X13332Y34618D02*
G01X13413Y34608D01*
G01X13492Y34618D01*
G01X13556Y34651D01*
G01X13600Y34709D01*
G01X13616Y34793D01*
G01X13613Y34830D01*
G01X13605Y34864D01*
G01X13590Y34896D01*
G01X13568Y34925D01*
G01X13539Y34952D01*
G01X13502Y34977D01*
G01X13457Y35000D01*
G01X13403Y35021D01*
G01X13341Y35039D01*
G01X13269Y35056D01*
G01X13188Y35071D01*
G01X13096Y35083D01*
G01X13096Y34760D01*
G01X13177Y34695D01*
G01X13254Y34647D01*
G01X13332Y34618D01*
G37*

%LPD*%
G36*
G01X14153Y34483D02*
G01X14074Y34476D01*
G01X14026Y34479D01*
G01X13976Y34489D01*
G01X13926Y34502D01*
G01X13878Y34517D01*
G01X13911Y34638D01*
G01X13940Y34629D01*
G01X13973Y34620D01*
G01X14007Y34613D01*
G01X14041Y34611D01*
G01X14122Y34625D01*
G01X14174Y34668D01*
G01X14202Y34736D01*
G01X14211Y34826D01*
G01X14211Y35461D01*
G01X13909Y35461D01*
G01X13909Y35599D01*
G01X14211Y35599D01*
G01X14211Y35908D01*
G01X14353Y35908D01*
G01X14371Y35599D01*
G01X14544Y35588D01*
G01X14544Y35461D01*
G01X14376Y35461D01*
G01X14376Y34832D01*
G01X14372Y34755D01*
G01X14361Y34686D01*
G01X14341Y34625D01*
G01X14311Y34573D01*
G01X14271Y34532D01*
G01X14218Y34501D01*
G01X14153Y34483D01*
G37*

%LPC*%

%LPD*%
G36*
G01X15330Y34481D02*
G01X15265Y34476D01*
G01X15213Y34479D01*
G01X15163Y34489D01*
G01X15114Y34503D01*
G01X15067Y34523D01*
G01X15022Y34546D01*
G01X14977Y34573D01*
G01X14935Y34603D01*
G01X14894Y34636D01*
G01X14889Y34636D01*
G01X14874Y34501D01*
G01X14739Y34501D01*
G01X14739Y35182D01*
G01X14741Y35246D01*
G01X14748Y35307D01*
G01X14759Y35363D01*
G01X14776Y35415D01*
G01X14798Y35461D01*
G01X14824Y35503D01*
G01X14857Y35540D01*
G01X14895Y35570D01*
G01X14939Y35594D01*
G01X14990Y35612D01*
G01X15046Y35623D01*
G01X15110Y35627D01*
G01X15175Y35623D01*
G01X15238Y35613D01*
G01X15297Y35598D01*
G01X15354Y35578D01*
G01X15406Y35555D01*
G01X15454Y35531D01*
G01X15498Y35506D01*
G01X15537Y35482D01*
G01X15471Y35367D01*
G01X15402Y35411D01*
G01X15321Y35450D01*
G01X15231Y35479D01*
G01X15135Y35489D01*
G01X15071Y35483D01*
G01X15020Y35464D01*
G01X14979Y35435D01*
G01X14948Y35397D01*
G01X14926Y35353D01*
G01X14912Y35303D01*
G01X14904Y35250D01*
G01X14902Y35195D01*
G01X14987Y35184D01*
G01X15067Y35172D01*
G01X15140Y35158D01*
G01X15207Y35142D01*
G01X15269Y35124D01*
G01X15325Y35105D01*
G01X15376Y35083D01*
G01X15420Y35060D01*
G01X15459Y35034D01*
G01X15493Y35005D01*
G01X15521Y34975D01*
G01X15544Y34942D01*
G01X15562Y34906D01*
G01X15575Y34868D01*
G01X15582Y34827D01*
G01X15585Y34783D01*
G01X15578Y34713D01*
G01X15560Y34652D01*
G01X15531Y34599D01*
G01X15492Y34555D01*
G01X15445Y34521D01*
G01X15391Y34496D01*
G01X15330Y34481D01*
G37*

%LPC*%
G36*
G01X15138Y34618D02*
G01X15219Y34608D01*
G01X15298Y34618D01*
G01X15362Y34651D01*
G01X15406Y34709D01*
G01X15422Y34793D01*
G01X15419Y34830D01*
G01X15411Y34864D01*
G01X15395Y34896D01*
G01X15374Y34925D01*
G01X15345Y34952D01*
G01X15308Y34977D01*
G01X15263Y35000D01*
G01X15209Y35021D01*
G01X15147Y35039D01*
G01X15075Y35056D01*
G01X14994Y35071D01*
G01X14902Y35083D01*
G01X14902Y34760D01*
G01X14982Y34695D01*
G01X15060Y34647D01*
G01X15138Y34618D01*
G37*

%LPD*%
G36*
G01X16885Y34501D02*
G01X16515Y34501D01*
G01X16448Y34503D01*
G01X16386Y34509D01*
G01X16326Y34520D01*
G01X16269Y34534D01*
G01X16216Y34553D01*
G01X16167Y34575D01*
G01X16120Y34601D01*
G01X16077Y34630D01*
G01X16037Y34664D01*
G01X16001Y34700D01*
G01X15968Y34741D01*
G01X15938Y34785D01*
G01X15912Y34832D01*
G01X15889Y34883D01*
G01X15870Y34936D01*
G01X15854Y34993D01*
G01X15842Y35053D01*
G01X15833Y35116D01*
G01X15828Y35182D01*
G01X15826Y35251D01*
G01X15828Y35319D01*
G01X15833Y35385D01*
G01X15842Y35448D01*
G01X15854Y35507D01*
G01X15870Y35563D01*
G01X15889Y35616D01*
G01X15912Y35666D01*
G01X15939Y35713D01*
G01X15968Y35756D01*
G01X16002Y35795D01*
G01X16038Y35832D01*
G01X16078Y35864D01*
G01X16121Y35893D01*
G01X16168Y35919D01*
G01X16218Y35940D01*
G01X16272Y35958D01*
G01X16329Y35971D01*
G01X16389Y35982D01*
G01X16453Y35988D01*
G01X16520Y35990D01*
G01X16885Y35990D01*
G01X16885Y34501D01*
G37*

%LPC*%
G36*
G01X16469Y34641D02*
G01X16535Y34638D01*
G01X16718Y34638D01*
G01X16718Y35850D01*
G01X16535Y35850D01*
G01X16469Y35848D01*
G01X16407Y35840D01*
G01X16350Y35827D01*
G01X16298Y35810D01*
G01X16249Y35788D01*
G01X16206Y35761D01*
G01X16166Y35729D01*
G01X16131Y35693D01*
G01X16100Y35652D01*
G01X16073Y35608D01*
G01X16050Y35558D01*
G01X16031Y35505D01*
G01X16017Y35447D01*
G01X16007Y35386D01*
G01X16001Y35320D01*
G01X15999Y35251D01*
G01X16001Y35182D01*
G01X16007Y35116D01*
G01X16017Y35054D01*
G01X16031Y34995D01*
G01X16050Y34941D01*
G01X16073Y34890D01*
G01X16100Y34844D01*
G01X16131Y34803D01*
G01X16166Y34765D01*
G01X16206Y34732D01*
G01X16249Y34704D01*
G01X16298Y34681D01*
G01X16350Y34662D01*
G01X16407Y34649D01*
G01X16469Y34641D01*
G37*

%LPD*%

%LPD*%
G36*
G01X16466Y29184D02*
G01X16408Y29182D01*
G01X16335Y29185D01*
G01X16266Y29195D01*
G01X16201Y29210D01*
G01X16141Y29230D01*
G01X16085Y29255D01*
G01X16035Y29284D01*
G01X15990Y29316D01*
G01X15951Y29352D01*
G01X15951Y29969D01*
G01X16431Y29969D01*
G01X16431Y29830D01*
G01X16109Y29830D01*
G01X16109Y29423D01*
G01X16163Y29384D01*
G01X16231Y29354D01*
G01X16308Y29335D01*
G01X16391Y29329D01*
G01X16450Y29332D01*
G01X16505Y29341D01*
G01X16557Y29354D01*
G01X16606Y29373D01*
G01X16651Y29397D01*
G01X16692Y29426D01*
G01X16730Y29459D01*
G01X16764Y29498D01*
G01X16794Y29541D01*
G01X16821Y29588D01*
G01X16844Y29639D01*
G01X16863Y29695D01*
G01X16877Y29754D01*
G01X16887Y29817D01*
G01X16894Y29884D01*
G01X16896Y29954D01*
G01X16894Y30024D01*
G01X16887Y30091D01*
G01X16876Y30154D01*
G01X16861Y30213D01*
G01X16841Y30268D01*
G01X16818Y30319D01*
G01X16790Y30366D01*
G01X16759Y30408D01*
G01X16725Y30445D01*
G01X16687Y30479D01*
G01X16645Y30507D01*
G01X16600Y30531D01*
G01X16552Y30550D01*
G01X16501Y30563D01*
G01X16447Y30571D01*
G01X16391Y30574D01*
G01X16284Y30563D01*
G01X16197Y30532D01*
G01X16124Y30487D01*
G01X16063Y30432D01*
G01X15972Y30541D01*
G01X16005Y30573D01*
G01X16044Y30605D01*
G01X16088Y30636D01*
G01X16138Y30663D01*
G01X16193Y30687D01*
G01X16254Y30705D01*
G01X16322Y30717D01*
G01X16396Y30721D01*
G01X16454Y30719D01*
G01X16510Y30713D01*
G01X16564Y30702D01*
G01X16616Y30687D01*
G01X16666Y30668D01*
G01X16714Y30645D01*
G01X16759Y30618D01*
G01X16802Y30588D01*
G01X16842Y30554D01*
G01X16879Y30516D01*
G01X16913Y30474D01*
G01X16944Y30429D01*
G01X16972Y30380D01*
G01X16997Y30329D01*
G01X17019Y30273D01*
G01X17036Y30215D01*
G01X17050Y30153D01*
G01X17060Y30089D01*
G01X17067Y30022D01*
G01X17069Y29952D01*
G01X17067Y29881D01*
G01X17061Y29812D01*
G01X17051Y29748D01*
G01X17037Y29686D01*
G01X17020Y29628D01*
G01X17000Y29573D01*
G01X16975Y29520D01*
G01X16948Y29472D01*
G01X16918Y29427D01*
G01X16884Y29386D01*
G01X16848Y29348D01*
G01X16809Y29314D01*
G01X16767Y29284D01*
G01X16722Y29257D01*
G01X16676Y29234D01*
G01X16626Y29216D01*
G01X16575Y29201D01*
G01X16521Y29191D01*
G01X16466Y29184D01*
G37*

%LPC*%

%LPD*%
G36*
G01X14133Y29207D02*
G01X13762Y29207D01*
G01X13695Y29210D01*
G01X13633Y29216D01*
G01X13573Y29226D01*
G01X13516Y29240D01*
G01X13464Y29259D01*
G01X13414Y29281D01*
G01X13367Y29307D01*
G01X13324Y29337D01*
G01X13284Y29370D01*
G01X13248Y29407D01*
G01X13215Y29447D01*
G01X13185Y29491D01*
G01X13159Y29538D01*
G01X13136Y29588D01*
G01X13117Y29642D01*
G01X13101Y29699D01*
G01X13089Y29759D01*
G01X13081Y29822D01*
G01X13075Y29888D01*
G01X13073Y29957D01*
G01X13075Y30025D01*
G01X13081Y30091D01*
G01X13089Y30153D01*
G01X13101Y30213D01*
G01X13117Y30269D01*
G01X13136Y30323D01*
G01X13159Y30372D01*
G01X13186Y30419D01*
G01X13216Y30462D01*
G01X13249Y30501D01*
G01X13285Y30537D01*
G01X13325Y30570D01*
G01X13369Y30599D01*
G01X13415Y30624D01*
G01X13466Y30646D01*
G01X13519Y30664D01*
G01X13576Y30678D01*
G01X13636Y30688D01*
G01X13700Y30694D01*
G01X13767Y30696D01*
G01X14133Y30696D01*
G01X14133Y29207D01*
G37*

%LPC*%
G36*
G01X13717Y29347D02*
G01X13782Y29345D01*
G01X13965Y29345D01*
G01X13965Y30556D01*
G01X13782Y30556D01*
G01X13717Y30554D01*
G01X13656Y30546D01*
G01X13599Y30533D01*
G01X13546Y30516D01*
G01X13498Y30494D01*
G01X13454Y30467D01*
G01X13414Y30435D01*
G01X13379Y30399D01*
G01X13348Y30359D01*
G01X13320Y30314D01*
G01X13297Y30265D01*
G01X13279Y30211D01*
G01X13264Y30153D01*
G01X13254Y30092D01*
G01X13248Y30026D01*
G01X13246Y29957D01*
G01X13248Y29887D01*
G01X13254Y29822D01*
G01X13264Y29760D01*
G01X13279Y29701D01*
G01X13297Y29647D01*
G01X13320Y29597D01*
G01X13348Y29550D01*
G01X13379Y29509D01*
G01X13414Y29471D01*
G01X13454Y29439D01*
G01X13498Y29410D01*
G01X13546Y29387D01*
G01X13599Y29369D01*
G01X13656Y29355D01*
G01X13717Y29347D01*
G37*

%LPD*%
G36*
G01X14722Y29207D02*
G01X14549Y29207D01*
G01X14549Y30696D01*
G01X14709Y30696D01*
G01X14709Y29891D01*
G01X14709Y29833D01*
G01X14707Y29775D01*
G01X14705Y29716D01*
G01X14702Y29657D01*
G01X14698Y29599D01*
G01X14694Y29540D01*
G01X14690Y29482D01*
G01X14686Y29426D01*
G01X14696Y29426D01*
G01X14856Y29731D01*
G01X15420Y30696D01*
G01X15593Y30696D01*
G01X15593Y29207D01*
G01X15433Y29207D01*
G01X15433Y30023D01*
G01X15434Y30081D01*
G01X15435Y30138D01*
G01X15437Y30195D01*
G01X15440Y30251D01*
G01X15444Y30308D01*
G01X15447Y30364D01*
G01X15450Y30420D01*
G01X15453Y30475D01*
G01X15443Y30475D01*
G01X15281Y30170D01*
G01X14722Y29207D01*
G37*

%LPC*%

%LPD*%
G54D16*
G01X69999Y39999D03*
G01X69999Y29999D03*
G01X69999Y34999D03*
G01X9999Y39999D03*
G01X9999Y29999D03*
G01X9999Y34999D03*
G54D12*
G01X75501Y78498D03*
G01X1499Y4999D03*
G01X8999Y3999D03*
G01X1499Y7499D03*
G01X79001Y72498D03*
G01X71999Y78499D03*
M00*
M02*
