G04 ---------------------------- Layer name :TOP SOLDER LAYER*
G04 EasyEDA v5.8.22, Sat, 19 Jan 2019 18:17:00 GMT*
G04 b8eca77e87294b629a6419249ffa979f*
G04 Gerber Generator version 0.2*
G04 Scale: 100 percent, Rotated: No, Reflected: No *
G04 Dimensions in millimeters *
G04 leading zeros omitted , absolute positions ,3 integer and 3 decimal *
%FSLAX33Y33*%
%MOMM*%
G90*
G71D02*

%ADD20R,1.403198X1.203198*%
%ADD21R,0.803148X0.853186*%

%LPD*%
G54D20*
G01X3501Y75798D03*
G01X6301Y75798D03*
G01X6301Y73998D03*
G01X3501Y73998D03*
G01X13599Y75899D03*
G01X16400Y75899D03*
G01X16400Y74099D03*
G01X13599Y74099D03*
G01X23601Y75898D03*
G01X26401Y75898D03*
G01X26401Y74098D03*
G01X23601Y74098D03*
G01X33599Y75899D03*
G01X36399Y75899D03*
G01X36399Y74099D03*
G01X33599Y74099D03*
G01X43599Y75899D03*
G01X46399Y75899D03*
G01X46399Y74099D03*
G01X43599Y74099D03*
G01X53599Y75899D03*
G01X56399Y75899D03*
G01X56399Y74099D03*
G01X53599Y74099D03*
G01X63599Y75899D03*
G01X66399Y75899D03*
G01X66399Y74099D03*
G01X63599Y74099D03*
G01X73599Y75899D03*
G01X76399Y75899D03*
G01X76399Y74099D03*
G01X73599Y74099D03*
G01X3599Y65899D03*
G01X6400Y65899D03*
G01X6400Y64099D03*
G01X3599Y64099D03*
G01X13599Y65899D03*
G01X16400Y65899D03*
G01X16400Y64099D03*
G01X13599Y64099D03*
G01X23599Y65899D03*
G01X26399Y65899D03*
G01X26399Y64099D03*
G01X23599Y64099D03*
G01X33599Y65899D03*
G01X36399Y65899D03*
G01X36399Y64099D03*
G01X33599Y64099D03*
G01X43599Y65899D03*
G01X46399Y65899D03*
G01X46399Y64099D03*
G01X43599Y64099D03*
G01X53601Y65898D03*
G01X56401Y65898D03*
G01X56401Y64098D03*
G01X53601Y64098D03*
G01X63599Y65899D03*
G01X66399Y65899D03*
G01X66399Y64099D03*
G01X63599Y64099D03*
G01X73599Y65899D03*
G01X76399Y65899D03*
G01X76399Y64099D03*
G01X73599Y64099D03*
G01X3599Y55899D03*
G01X6400Y55899D03*
G01X6400Y54099D03*
G01X3599Y54099D03*
G01X13599Y55899D03*
G01X16400Y55899D03*
G01X16400Y54099D03*
G01X13599Y54099D03*
G01X23599Y55899D03*
G01X26399Y55899D03*
G01X26399Y54099D03*
G01X23599Y54099D03*
G01X33601Y55898D03*
G01X36402Y55898D03*
G01X36402Y54098D03*
G01X33601Y54098D03*
G01X43601Y55898D03*
G01X46401Y55898D03*
G01X46401Y54098D03*
G01X43601Y54098D03*
G01X53601Y55898D03*
G01X56401Y55898D03*
G01X56401Y54098D03*
G01X53601Y54098D03*
G01X63599Y55899D03*
G01X66399Y55899D03*
G01X66399Y54099D03*
G01X63599Y54099D03*
G01X73601Y55898D03*
G01X76401Y55898D03*
G01X76401Y54098D03*
G01X73601Y54098D03*
G01X3601Y45898D03*
G01X6402Y45898D03*
G01X6402Y44098D03*
G01X3601Y44098D03*
G01X13601Y45898D03*
G01X16402Y45898D03*
G01X16402Y44098D03*
G01X13601Y44098D03*
G01X23601Y45898D03*
G01X26401Y45898D03*
G01X26401Y44098D03*
G01X23601Y44098D03*
G01X33601Y45898D03*
G01X36402Y45898D03*
G01X36402Y44098D03*
G01X33601Y44098D03*
G01X43601Y45898D03*
G01X46401Y45898D03*
G01X46401Y44098D03*
G01X43601Y44098D03*
G01X53601Y45898D03*
G01X56401Y45898D03*
G01X56401Y44098D03*
G01X53601Y44098D03*
G01X63601Y45898D03*
G01X66401Y45898D03*
G01X66401Y44098D03*
G01X63601Y44098D03*
G01X73601Y45898D03*
G01X76401Y45898D03*
G01X76401Y44098D03*
G01X73601Y44098D03*
G01X3601Y35898D03*
G01X6402Y35898D03*
G01X6402Y34098D03*
G01X3601Y34098D03*
G01X13601Y35898D03*
G01X16402Y35898D03*
G01X16402Y34098D03*
G01X13601Y34098D03*
G01X23601Y35898D03*
G01X26401Y35898D03*
G01X26401Y34098D03*
G01X23601Y34098D03*
G01X33601Y35898D03*
G01X36402Y35898D03*
G01X36402Y34098D03*
G01X33601Y34098D03*
G01X43601Y35898D03*
G01X46401Y35898D03*
G01X46401Y34098D03*
G01X43601Y34098D03*
G01X53601Y35898D03*
G01X56401Y35898D03*
G01X56401Y34098D03*
G01X53601Y34098D03*
G01X63601Y35898D03*
G01X66401Y35898D03*
G01X66401Y34098D03*
G01X63601Y34098D03*
G01X73599Y35899D03*
G01X76399Y35899D03*
G01X76399Y34100D03*
G01X73599Y34100D03*
G01X3601Y25898D03*
G01X6402Y25898D03*
G01X6402Y24098D03*
G01X3601Y24098D03*
G01X13601Y25898D03*
G01X16402Y25898D03*
G01X16402Y24098D03*
G01X13601Y24098D03*
G01X23599Y25899D03*
G01X26399Y25899D03*
G01X26399Y24100D03*
G01X23599Y24100D03*
G01X33601Y25898D03*
G01X36402Y25898D03*
G01X36402Y24098D03*
G01X33601Y24098D03*
G01X43601Y25898D03*
G01X46401Y25898D03*
G01X46401Y24098D03*
G01X43601Y24098D03*
G01X53601Y25898D03*
G01X56401Y25898D03*
G01X56401Y24098D03*
G01X53601Y24098D03*
G01X63599Y25899D03*
G01X66399Y25899D03*
G01X66399Y24100D03*
G01X63599Y24100D03*
G01X73599Y25899D03*
G01X76399Y25899D03*
G01X76399Y24100D03*
G01X73599Y24100D03*
G01X3601Y15898D03*
G01X6402Y15898D03*
G01X6402Y14098D03*
G01X3601Y14098D03*
G01X13601Y15898D03*
G01X16402Y15898D03*
G01X16402Y14098D03*
G01X13601Y14098D03*
G01X23601Y15898D03*
G01X26401Y15898D03*
G01X26401Y14098D03*
G01X23601Y14098D03*
G01X33601Y15898D03*
G01X36402Y15898D03*
G01X36402Y14098D03*
G01X33601Y14098D03*
G01X43601Y15898D03*
G01X46401Y15898D03*
G01X46401Y14098D03*
G01X43601Y14098D03*
G01X53601Y15898D03*
G01X56401Y15898D03*
G01X56401Y14098D03*
G01X53601Y14098D03*
G01X63601Y15898D03*
G01X66401Y15898D03*
G01X66401Y14098D03*
G01X63601Y14098D03*
G01X73599Y15899D03*
G01X76399Y15899D03*
G01X76399Y14100D03*
G01X73599Y14100D03*
G01X3601Y5898D03*
G01X6402Y5898D03*
G01X6402Y4098D03*
G01X3601Y4098D03*
G01X13601Y5898D03*
G01X16402Y5898D03*
G01X16402Y4098D03*
G01X13601Y4098D03*
G01X23599Y5899D03*
G01X26399Y5899D03*
G01X26399Y4100D03*
G01X23599Y4100D03*
G01X33599Y5899D03*
G01X36399Y5899D03*
G01X36399Y4100D03*
G01X33599Y4100D03*
G01X43601Y5898D03*
G01X46401Y5898D03*
G01X46401Y4098D03*
G01X43601Y4098D03*
G01X53599Y5899D03*
G01X56399Y5899D03*
G01X56399Y4100D03*
G01X53599Y4100D03*
G01X63601Y5898D03*
G01X66401Y5898D03*
G01X66401Y4098D03*
G01X63601Y4098D03*
G01X73599Y5899D03*
G01X76399Y5899D03*
G01X76399Y4100D03*
G01X73599Y4100D03*
G54D21*
G01X5226Y71298D03*
G01X4377Y71298D03*
G01X15424Y71499D03*
G01X14575Y71499D03*
G01X25426Y71498D03*
G01X24577Y71498D03*
G01X35426Y71498D03*
G01X34577Y71498D03*
G01X45426Y71498D03*
G01X44577Y71498D03*
G01X55426Y71498D03*
G01X54577Y71498D03*
G01X65426Y71498D03*
G01X64577Y71498D03*
G01X75926Y71498D03*
G01X75077Y71498D03*
G01X5424Y61499D03*
G01X4575Y61499D03*
G01X15424Y61499D03*
G01X14575Y61499D03*
G01X25426Y61498D03*
G01X24577Y61498D03*
G01X35426Y61498D03*
G01X34577Y61498D03*
G01X45426Y61498D03*
G01X44577Y61498D03*
G01X55926Y61498D03*
G01X55077Y61498D03*
G01X65426Y61498D03*
G01X64577Y61498D03*
G01X75426Y61498D03*
G01X74577Y61498D03*
G01X5426Y51498D03*
G01X4577Y51498D03*
G01X15426Y51498D03*
G01X14577Y51498D03*
G01X25426Y51498D03*
G01X24577Y51498D03*
G01X35426Y51498D03*
G01X34577Y51498D03*
G01X45426Y51498D03*
G01X44577Y51498D03*
G01X55424Y51499D03*
G01X54575Y51499D03*
G01X65426Y51498D03*
G01X64577Y51498D03*
G01X75426Y51498D03*
G01X74577Y51498D03*
G01X5426Y41498D03*
G01X4577Y41498D03*
G01X15426Y41498D03*
G01X14577Y41498D03*
G01X25426Y41498D03*
G01X24577Y41498D03*
G01X35426Y41498D03*
G01X34577Y41498D03*
G01X45426Y41498D03*
G01X44577Y41498D03*
G01X55426Y41498D03*
G01X54577Y41498D03*
G01X65426Y41498D03*
G01X64577Y41498D03*
G01X75426Y41498D03*
G01X74577Y41498D03*
G01X5426Y31498D03*
G01X4577Y31498D03*
G01X15426Y31498D03*
G01X14577Y31498D03*
G01X25426Y31498D03*
G01X24577Y31498D03*
G01X35426Y31498D03*
G01X34577Y31498D03*
G01X45426Y31498D03*
G01X44577Y31498D03*
G01X55424Y31499D03*
G01X54575Y31499D03*
G01X65426Y31498D03*
G01X64577Y31498D03*
G01X75426Y31498D03*
G01X74577Y31498D03*
G01X5426Y21498D03*
G01X4577Y21498D03*
G01X15426Y21498D03*
G01X14577Y21498D03*
G01X25426Y21498D03*
G01X24577Y21498D03*
G01X35426Y21498D03*
G01X34577Y21498D03*
G01X45426Y21498D03*
G01X44577Y21498D03*
G01X55426Y21498D03*
G01X54577Y21498D03*
G01X65426Y21498D03*
G01X64577Y21498D03*
G01X75426Y21498D03*
G01X74577Y21498D03*
G01X5426Y11498D03*
G01X4577Y11498D03*
G01X15426Y11498D03*
G01X14577Y11498D03*
G01X25426Y11498D03*
G01X24577Y11498D03*
G01X35426Y11498D03*
G01X34577Y11498D03*
G01X45426Y11498D03*
G01X44577Y11498D03*
G01X55426Y11498D03*
G01X54577Y11498D03*
G01X65426Y11498D03*
G01X64577Y11498D03*
G01X75426Y11498D03*
G01X74577Y11498D03*
G01X5426Y1498D03*
G01X4577Y1498D03*
G01X15426Y1498D03*
G01X14577Y1498D03*
G01X25426Y1498D03*
G01X24577Y1498D03*
G01X35426Y1498D03*
G01X34577Y1498D03*
G01X45426Y1498D03*
G01X44577Y1498D03*
G01X55426Y1498D03*
G01X54577Y1498D03*
G01X65426Y1498D03*
G01X64577Y1498D03*
G01X75426Y1498D03*
G01X74577Y1498D03*
M00*
M02*
